G04 #@! TF.FileFunction,Copper,L2,Bot,Signal*
%FSLAX46Y46*%
G04 Gerber Fmt 4.6, Leading zero omitted, Abs format (unit mm)*
G04 Created by KiCad (PCBNEW 4.0.7) date 10/28/20 13:25:35*
%MOMM*%
%LPD*%
G01*
G04 APERTURE LIST*
%ADD10C,0.100000*%
%ADD11R,2.400000X2.400000*%
%ADD12C,2.400000*%
%ADD13C,1.600000*%
%ADD14O,2.400000X2.400000*%
%ADD15R,1.600000X1.600000*%
%ADD16O,1.600000X1.600000*%
%ADD17R,2.000000X2.000000*%
%ADD18C,2.000000*%
%ADD19R,3.200000X3.200000*%
%ADD20O,3.200000X3.200000*%
%ADD21R,2.200000X2.200000*%
%ADD22O,2.200000X2.200000*%
%ADD23R,3.000000X3.000000*%
%ADD24C,3.000000*%
%ADD25R,1.800000X1.800000*%
%ADD26O,1.800000X1.800000*%
%ADD27C,0.600000*%
%ADD28C,1.000000*%
%ADD29C,0.500000*%
%ADD30C,2.000000*%
%ADD31C,4.000000*%
G04 APERTURE END LIST*
D10*
D11*
X93000000Y-142000000D03*
D12*
X100500000Y-142000000D03*
D13*
X55750000Y-67250000D03*
X55750000Y-62250000D03*
D12*
X65750000Y-145000000D03*
D14*
X65750000Y-132300000D03*
D11*
X38000000Y-142000000D03*
D12*
X30500000Y-142000000D03*
D13*
X45275000Y-111175000D03*
X55275000Y-111175000D03*
X62550000Y-104575000D03*
X57550000Y-104575000D03*
X62375000Y-100725000D03*
X57375000Y-100725000D03*
X66500000Y-66500000D03*
X66500000Y-61500000D03*
D15*
X29750000Y-59750000D03*
D13*
X29750000Y-57250000D03*
X64250000Y-72000000D03*
D16*
X54250000Y-72000000D03*
D11*
X50000000Y-142000000D03*
D12*
X57500000Y-142000000D03*
D13*
X33750000Y-120500000D03*
D16*
X33750000Y-110500000D03*
D13*
X44500000Y-61000000D03*
X39500000Y-61000000D03*
X42250000Y-53000000D03*
X42250000Y-58000000D03*
X74000000Y-140250000D03*
X74000000Y-145250000D03*
X77750000Y-145250000D03*
X77750000Y-140250000D03*
D15*
X58250000Y-123500000D03*
D13*
X55750000Y-123500000D03*
D15*
X93600000Y-128800000D03*
D13*
X91100000Y-128800000D03*
X57075000Y-82675000D03*
X57075000Y-87675000D03*
X70975000Y-88850000D03*
X70975000Y-93850000D03*
D17*
X44000000Y-68500000D03*
D18*
X40500000Y-68500000D03*
D17*
X30750000Y-69750000D03*
D18*
X30750000Y-66250000D03*
D13*
X50500000Y-126250000D03*
X50500000Y-121250000D03*
X38500000Y-130250000D03*
X43500000Y-130250000D03*
D19*
X47850000Y-155770000D03*
D20*
X35150000Y-155770000D03*
D19*
X87030000Y-156070000D03*
D20*
X99730000Y-156070000D03*
D15*
X35250000Y-130750000D03*
D16*
X35250000Y-123130000D03*
D15*
X32575000Y-123250000D03*
D16*
X32575000Y-130870000D03*
D19*
X53040000Y-155840000D03*
D20*
X65740000Y-155840000D03*
D19*
X116430000Y-155880000D03*
D20*
X103730000Y-155880000D03*
D21*
X70250000Y-137250000D03*
D22*
X70250000Y-144870000D03*
D21*
X81250000Y-145000000D03*
D22*
X81250000Y-137380000D03*
D23*
X67900000Y-104875000D03*
D24*
X67900000Y-109955000D03*
D23*
X40000000Y-80250000D03*
D24*
X40000000Y-85330000D03*
D25*
X69750000Y-124750000D03*
D26*
X69750000Y-122210000D03*
X69750000Y-119670000D03*
D13*
X67075000Y-100225000D03*
D16*
X74695000Y-100225000D03*
D13*
X61250000Y-115500000D03*
D16*
X61250000Y-107880000D03*
D13*
X58000000Y-115500000D03*
D16*
X58000000Y-107880000D03*
D13*
X47175000Y-106825000D03*
D16*
X54795000Y-106825000D03*
D13*
X54825000Y-102500000D03*
D16*
X47205000Y-102500000D03*
D13*
X67800000Y-92600000D03*
D16*
X60180000Y-92600000D03*
D13*
X56575000Y-77000000D03*
D16*
X64195000Y-77000000D03*
D13*
X67300000Y-69850000D03*
D16*
X67300000Y-77470000D03*
D13*
X36250000Y-59500000D03*
D16*
X36250000Y-51880000D03*
D13*
X59500000Y-61500000D03*
D16*
X59500000Y-69120000D03*
D13*
X63250000Y-61500000D03*
D16*
X63250000Y-69120000D03*
D12*
X50750000Y-62750000D03*
D14*
X50750000Y-75450000D03*
D12*
X52800000Y-91700000D03*
D14*
X52800000Y-79000000D03*
D12*
X85000000Y-132500000D03*
D14*
X85000000Y-145200000D03*
D12*
X58750000Y-130250000D03*
D14*
X46050000Y-130250000D03*
D12*
X117125000Y-130825000D03*
D14*
X104425000Y-130825000D03*
D15*
X60075000Y-88550000D03*
D16*
X67695000Y-80930000D03*
X62615000Y-88550000D03*
X65155000Y-80930000D03*
X65155000Y-88550000D03*
X62615000Y-80930000D03*
X67695000Y-88550000D03*
X60075000Y-80930000D03*
D25*
X48250000Y-57000000D03*
D26*
X49950000Y-51920000D03*
X51650000Y-57000000D03*
X53350000Y-51920000D03*
X55050000Y-57000000D03*
X56750000Y-51920000D03*
X58450000Y-57000000D03*
X60150000Y-51920000D03*
X61850000Y-57000000D03*
X63550000Y-51920000D03*
X65250000Y-57000000D03*
D15*
X46750000Y-119000000D03*
D16*
X39130000Y-126620000D03*
X44210000Y-119000000D03*
X41670000Y-126620000D03*
X41670000Y-119000000D03*
X44210000Y-126620000D03*
X39130000Y-119000000D03*
X46750000Y-126620000D03*
D23*
X71390000Y-155630000D03*
D24*
X76470000Y-155630000D03*
X81550000Y-155630000D03*
D11*
X119000000Y-142000000D03*
D12*
X111500000Y-142000000D03*
D25*
X83000000Y-125000000D03*
D26*
X83000000Y-122460000D03*
X83000000Y-119920000D03*
D12*
X38850000Y-101600000D03*
X38850000Y-91600000D03*
D13*
X38250000Y-114000000D03*
D16*
X38250000Y-106380000D03*
D13*
X41475000Y-106300000D03*
D16*
X41475000Y-113920000D03*
D13*
X112450000Y-113100000D03*
X102450000Y-113100000D03*
X106100000Y-104500000D03*
X111100000Y-104500000D03*
X116950000Y-100900000D03*
X121950000Y-100900000D03*
X112600000Y-60050000D03*
X117600000Y-60050000D03*
X120900000Y-78600000D03*
X115900000Y-78600000D03*
X108300000Y-65400000D03*
X108300000Y-60400000D03*
D17*
X85650000Y-74000000D03*
D18*
X82150000Y-74000000D03*
D13*
X84000000Y-53750000D03*
X84000000Y-58750000D03*
X87450000Y-63150000D03*
X82450000Y-63150000D03*
D17*
X75750000Y-67500000D03*
D18*
X75750000Y-64000000D03*
D15*
X74500000Y-57250000D03*
D13*
X74500000Y-54750000D03*
X98050000Y-65550000D03*
X98050000Y-60550000D03*
X100750000Y-96750000D03*
D16*
X90750000Y-96750000D03*
D13*
X105450000Y-73150000D03*
D16*
X95450000Y-73150000D03*
D13*
X88800000Y-99700000D03*
X93800000Y-99700000D03*
X100750000Y-108750000D03*
X100750000Y-103750000D03*
D15*
X103250000Y-99750000D03*
D16*
X110870000Y-99750000D03*
D15*
X110750000Y-96750000D03*
D16*
X103130000Y-96750000D03*
D23*
X118000000Y-112750000D03*
D24*
X118000000Y-117830000D03*
D23*
X85750000Y-85750000D03*
D24*
X85750000Y-90830000D03*
D12*
X96950000Y-80650000D03*
X96950000Y-90650000D03*
D13*
X105200000Y-118150000D03*
D16*
X112820000Y-118150000D03*
D13*
X111300000Y-108150000D03*
D16*
X103680000Y-108150000D03*
D13*
X121800000Y-108100000D03*
D16*
X114180000Y-108100000D03*
D13*
X121750000Y-104450000D03*
D16*
X114130000Y-104450000D03*
D13*
X120850000Y-82400000D03*
D16*
X113230000Y-82400000D03*
D13*
X112750000Y-63600000D03*
D16*
X120370000Y-63600000D03*
D13*
X109400000Y-67750000D03*
D16*
X109400000Y-75370000D03*
D13*
X80500000Y-59000000D03*
D16*
X80500000Y-51380000D03*
D13*
X101550000Y-60450000D03*
D16*
X101550000Y-68070000D03*
D13*
X105050000Y-60450000D03*
D16*
X105050000Y-68070000D03*
D13*
X113600000Y-97100000D03*
D16*
X113600000Y-89480000D03*
D13*
X117050000Y-89400000D03*
D16*
X117050000Y-97020000D03*
D12*
X91500000Y-63650000D03*
D14*
X91500000Y-76350000D03*
D12*
X106600000Y-91700000D03*
D14*
X106600000Y-79000000D03*
D15*
X113200000Y-74950000D03*
D16*
X120820000Y-67330000D03*
X115740000Y-74950000D03*
X118280000Y-67330000D03*
X118280000Y-74950000D03*
X115740000Y-67330000D03*
X120820000Y-74950000D03*
X113200000Y-67330000D03*
D25*
X89000000Y-57250000D03*
D26*
X90700000Y-52170000D03*
X92400000Y-57250000D03*
X94100000Y-52170000D03*
X95800000Y-57250000D03*
X97500000Y-52170000D03*
X99200000Y-57250000D03*
X100900000Y-52170000D03*
X102600000Y-57250000D03*
X104300000Y-52170000D03*
X106000000Y-57250000D03*
D15*
X88925000Y-110650000D03*
D16*
X96545000Y-103030000D03*
X91465000Y-110650000D03*
X94005000Y-103030000D03*
X94005000Y-110650000D03*
X91465000Y-103030000D03*
X96545000Y-110650000D03*
X88925000Y-103030000D03*
D13*
X122000000Y-123000000D03*
D16*
X122000000Y-130620000D03*
D27*
X44500000Y-52250000D03*
X40500000Y-51000000D03*
X115000000Y-70000000D03*
X82975000Y-102000000D03*
X77200000Y-112125000D03*
X64750000Y-83500000D03*
X72400000Y-83500000D03*
X72800000Y-115625000D03*
X116750000Y-80500000D03*
X96050000Y-122325000D03*
X95500000Y-116400000D03*
X87000000Y-53250000D03*
X82750000Y-51250000D03*
D28*
X54795000Y-106825000D02*
X54795000Y-107380000D01*
X54795000Y-107380000D02*
X52075000Y-110100000D01*
X52075000Y-110100000D02*
X52075000Y-115500000D01*
X45275000Y-111175000D02*
X46900000Y-111175000D01*
X51225000Y-115500000D02*
X52075000Y-115500000D01*
X52075000Y-115500000D02*
X58000000Y-115500000D01*
X46900000Y-111175000D02*
X51225000Y-115500000D01*
X55275000Y-111175000D02*
X56925000Y-111175000D01*
X56925000Y-111175000D02*
X61250000Y-115500000D01*
X67900000Y-109955000D02*
X63170000Y-113580000D01*
X63170000Y-113580000D02*
X61250000Y-115500000D01*
X62375000Y-100725000D02*
X62375000Y-104400000D01*
X62375000Y-104400000D02*
X62550000Y-104575000D01*
X61250000Y-107880000D02*
X58000000Y-107880000D01*
X62550000Y-104575000D02*
X62550000Y-106580000D01*
X62550000Y-106580000D02*
X61250000Y-107880000D01*
X67075000Y-100225000D02*
X67075000Y-104050000D01*
X67075000Y-104050000D02*
X67900000Y-104875000D01*
X67075000Y-100225000D02*
X62275000Y-100225000D01*
X62275000Y-100225000D02*
X62375000Y-100325000D01*
X62375000Y-100325000D02*
X62375000Y-100725000D01*
X63550000Y-51920000D02*
X67170000Y-52670000D01*
X68500000Y-59500000D02*
X66500000Y-61500000D01*
X68500000Y-54000000D02*
X68500000Y-59500000D01*
X67170000Y-52670000D02*
X68500000Y-54000000D01*
X67695000Y-80930000D02*
X68070000Y-80930000D01*
X68070000Y-80930000D02*
X69250000Y-79750000D01*
X69250000Y-64250000D02*
X66500000Y-61500000D01*
X69250000Y-79750000D02*
X69250000Y-64250000D01*
X62850000Y-104875000D02*
X62550000Y-104575000D01*
X67850000Y-104825000D02*
X67900000Y-104875000D01*
D29*
X67000000Y-61000000D02*
X66500000Y-61500000D01*
X63630000Y-52000000D02*
X63550000Y-51920000D01*
D28*
X57550000Y-104575000D02*
X47900000Y-104575000D01*
X47253370Y-105221630D02*
X47253370Y-105221619D01*
X47900000Y-104575000D02*
X47253370Y-105221630D01*
X47205000Y-102500000D02*
X47253370Y-105221619D01*
X47253370Y-105221619D02*
X47280000Y-106720000D01*
X47280000Y-106720000D02*
X47175000Y-106825000D01*
X57375000Y-100725000D02*
X57375000Y-97375000D01*
X62375000Y-91330000D02*
X65155000Y-88550000D01*
X62375000Y-94325000D02*
X62375000Y-91330000D01*
X61175000Y-95525000D02*
X62375000Y-94325000D01*
X59225000Y-95525000D02*
X61175000Y-95525000D01*
X57375000Y-97375000D02*
X59225000Y-95525000D01*
X57375000Y-100725000D02*
X57375000Y-100225000D01*
X57375000Y-100725000D02*
X56600000Y-100725000D01*
X56600000Y-100725000D02*
X54825000Y-102500000D01*
X66500000Y-66500000D02*
X66500000Y-67250000D01*
X66500000Y-67250000D02*
X67300000Y-68050000D01*
X67300000Y-68050000D02*
X67300000Y-69850000D01*
D29*
X61850000Y-57000000D02*
X62250000Y-57000000D01*
X62250000Y-57000000D02*
X64750000Y-60500000D01*
X64750000Y-64750000D02*
X66500000Y-66500000D01*
X64750000Y-60500000D02*
X64750000Y-64750000D01*
X61850000Y-57000000D02*
X61600000Y-59850000D01*
X61600000Y-59850000D02*
X63250000Y-61500000D01*
X61850000Y-57000000D02*
X61600000Y-59400000D01*
X61600000Y-59400000D02*
X59500000Y-61500000D01*
X61850000Y-57000000D02*
X61850000Y-57100000D01*
X63250000Y-69120000D02*
X63250000Y-69250000D01*
X63250000Y-69250000D02*
X62000000Y-70750000D01*
X62000000Y-70750000D02*
X57000000Y-70750000D01*
X57000000Y-70750000D02*
X55750000Y-69250000D01*
X55750000Y-69250000D02*
X55750000Y-67250000D01*
D30*
X44050000Y-76600000D02*
X44050000Y-76200000D01*
X50750000Y-69500000D02*
X50750000Y-62750000D01*
X44050000Y-76200000D02*
X50750000Y-69500000D01*
X38850000Y-101600000D02*
X36050000Y-101600000D01*
X46450000Y-79000000D02*
X52800000Y-79000000D01*
X43500000Y-76050000D02*
X44050000Y-76600000D01*
X44050000Y-76600000D02*
X46450000Y-79000000D01*
X34500000Y-76050000D02*
X43500000Y-76050000D01*
X32800000Y-77750000D02*
X34500000Y-76050000D01*
X32800000Y-98350000D02*
X32800000Y-77750000D01*
X36050000Y-101600000D02*
X32800000Y-98350000D01*
D28*
X38850000Y-101600000D02*
X38850000Y-105780000D01*
X38850000Y-105780000D02*
X38250000Y-106380000D01*
D30*
X51650000Y-57000000D02*
X51400000Y-62100000D01*
X51400000Y-62100000D02*
X50750000Y-62750000D01*
D28*
X51400000Y-62100000D02*
X50750000Y-62750000D01*
D29*
X55750000Y-62250000D02*
X55750000Y-62000000D01*
X55750000Y-62000000D02*
X56500000Y-61250000D01*
X53400000Y-55250000D02*
X51650000Y-57000000D01*
X56000000Y-55250000D02*
X53400000Y-55250000D01*
X56750000Y-56500000D02*
X56000000Y-55250000D01*
X56500000Y-61250000D02*
X56750000Y-56500000D01*
X59500000Y-69120000D02*
X59500000Y-66000000D01*
X59500000Y-66000000D02*
X55750000Y-62250000D01*
X51650000Y-56600000D02*
X51650000Y-57000000D01*
X36250000Y-51880000D02*
X33620000Y-51880000D01*
X33620000Y-51880000D02*
X30500000Y-57250000D01*
X30500000Y-57250000D02*
X29750000Y-57250000D01*
X36250000Y-51880000D02*
X37620000Y-51880000D01*
X58070000Y-54000000D02*
X60150000Y-51920000D01*
X46750000Y-54000000D02*
X58070000Y-54000000D01*
X44500000Y-52250000D02*
X46750000Y-54000000D01*
X38500000Y-51000000D02*
X40500000Y-51000000D01*
X37620000Y-51880000D02*
X38500000Y-51000000D01*
D30*
X96250000Y-113550000D02*
X96250000Y-113750000D01*
X96250000Y-113550000D02*
X93475000Y-113550000D01*
X85325000Y-103475000D02*
X85325000Y-97125000D01*
X85325000Y-97125000D02*
X81700000Y-93500000D01*
X85325000Y-103475000D02*
X85325000Y-113530824D01*
X53040000Y-152060000D02*
X56700000Y-148400000D01*
X56700000Y-148400000D02*
X113350000Y-148400000D01*
X113350000Y-148400000D02*
X115550000Y-146200000D01*
X115550000Y-146200000D02*
X115550000Y-138900000D01*
X115550000Y-138900000D02*
X113400000Y-136750000D01*
X113400000Y-136750000D02*
X113400000Y-129500000D01*
X53040000Y-155840000D02*
X53040000Y-152060000D01*
X93475000Y-113550000D02*
X85325000Y-113530824D01*
X81700000Y-93500000D02*
X81700000Y-81000000D01*
X113400000Y-126350000D02*
X113400000Y-129500000D01*
X110825000Y-123775000D02*
X113400000Y-126350000D01*
X106275000Y-123775000D02*
X110825000Y-123775000D01*
X96250000Y-113750000D02*
X106275000Y-123775000D01*
X44000000Y-68500000D02*
X44000000Y-70200000D01*
X30000000Y-80050000D02*
X30000000Y-92250000D01*
X30000000Y-74200000D02*
X30000000Y-80050000D01*
X30900000Y-73300000D02*
X30000000Y-74200000D01*
X40900000Y-73300000D02*
X30900000Y-73300000D01*
X44000000Y-70200000D02*
X40900000Y-73300000D01*
X30000000Y-91750000D02*
X30000000Y-92250000D01*
X30000000Y-92250000D02*
X30000000Y-118150000D01*
X85650000Y-74000000D02*
X85650000Y-65150000D01*
X85650000Y-65150000D02*
X87450000Y-63350000D01*
X87450000Y-63350000D02*
X87450000Y-63150000D01*
X85650000Y-74000000D02*
X85650000Y-78550000D01*
X85650000Y-78550000D02*
X81700000Y-81000000D01*
X81700000Y-81000000D02*
X81700000Y-80600000D01*
X89000000Y-57250000D02*
X88550000Y-57250000D01*
X88550000Y-57250000D02*
X87450000Y-58350000D01*
X87450000Y-58350000D02*
X87450000Y-63150000D01*
D28*
X50000000Y-142000000D02*
X50000000Y-140600000D01*
X54100000Y-136500000D02*
X62250000Y-136500000D01*
X50000000Y-140600000D02*
X54100000Y-136500000D01*
X69750000Y-122210000D02*
X67290000Y-122210000D01*
X62250000Y-127250000D02*
X62250000Y-136500000D01*
X67290000Y-122210000D02*
X62250000Y-127250000D01*
X62250000Y-136500000D02*
X62250000Y-141500000D01*
X62250000Y-141500000D02*
X65750000Y-145000000D01*
D30*
X89000000Y-57250000D02*
X88750000Y-57250000D01*
X48250000Y-57000000D02*
X48250000Y-57750000D01*
X48250000Y-57750000D02*
X45500000Y-61000000D01*
X45500000Y-61000000D02*
X44500000Y-61000000D01*
X44500000Y-61000000D02*
X44500000Y-68000000D01*
X44500000Y-68000000D02*
X44000000Y-68500000D01*
D28*
X65750000Y-145000000D02*
X65750000Y-145250000D01*
D30*
X30000000Y-118150000D02*
X30000000Y-134000000D01*
X30000000Y-134000000D02*
X38000000Y-142000000D01*
X30000000Y-118150000D02*
X30000000Y-119000000D01*
D31*
X38000000Y-142000000D02*
X38000000Y-145920000D01*
X38000000Y-145920000D02*
X47850000Y-155770000D01*
D28*
X44500000Y-68000000D02*
X44000000Y-68500000D01*
X48250000Y-57000000D02*
X48000000Y-57000000D01*
D31*
X50000000Y-142000000D02*
X38000000Y-142000000D01*
X53040000Y-155840000D02*
X47870000Y-155750000D01*
X47870000Y-155750000D02*
X47850000Y-155770000D01*
D28*
X35250000Y-123130000D02*
X32695000Y-123130000D01*
X32695000Y-123130000D02*
X32575000Y-123250000D01*
X38250000Y-114000000D02*
X38250000Y-115250000D01*
X38250000Y-115250000D02*
X37000000Y-116500000D01*
X44210000Y-119000000D02*
X44210000Y-117460000D01*
X33750000Y-118750000D02*
X33750000Y-120500000D01*
X36000000Y-116500000D02*
X33750000Y-118750000D01*
X43250000Y-116500000D02*
X37000000Y-116500000D01*
X37000000Y-116500000D02*
X36000000Y-116500000D01*
X44210000Y-117460000D02*
X43250000Y-116500000D01*
X33750000Y-120500000D02*
X33750000Y-121630000D01*
X33750000Y-121630000D02*
X35250000Y-123130000D01*
X41475000Y-113920000D02*
X44570000Y-113920000D01*
X46750000Y-116100000D02*
X46750000Y-119000000D01*
X44570000Y-113920000D02*
X46750000Y-116100000D01*
X33750000Y-110500000D02*
X39200000Y-110500000D01*
X41475000Y-112775000D02*
X41475000Y-113920000D01*
X39200000Y-110500000D02*
X41475000Y-112775000D01*
D30*
X109750000Y-130750000D02*
X109750000Y-129575000D01*
X109750000Y-142000000D02*
X109750000Y-130750000D01*
X80600000Y-115975000D02*
X77250000Y-115975000D01*
X75150000Y-105000000D02*
X78950000Y-101200000D01*
X75150000Y-113875000D02*
X75150000Y-105000000D01*
X77250000Y-115975000D02*
X75150000Y-113875000D01*
X72500000Y-64000000D02*
X75750000Y-64000000D01*
X72000000Y-64500000D02*
X72500000Y-64000000D01*
X72000000Y-75250000D02*
X72000000Y-64500000D01*
X75000000Y-78250000D02*
X72000000Y-75250000D01*
X77250000Y-78250000D02*
X75000000Y-78250000D01*
X78950000Y-81650000D02*
X77250000Y-78250000D01*
X78950000Y-101200000D02*
X78950000Y-81650000D01*
X86525000Y-115975000D02*
X96900000Y-126350000D01*
X80600000Y-115975000D02*
X86525000Y-115975000D01*
X97675000Y-127125000D02*
X96900000Y-126350000D01*
X107300000Y-127125000D02*
X97675000Y-127125000D01*
X109750000Y-129575000D02*
X107300000Y-127125000D01*
X27000000Y-90800000D02*
X27000000Y-67850000D01*
X28600000Y-66250000D02*
X30750000Y-66250000D01*
X27000000Y-67850000D02*
X28600000Y-66250000D01*
X93700000Y-151250000D02*
X94910000Y-151250000D01*
X94910000Y-151250000D02*
X99730000Y-156070000D01*
X93700000Y-151250000D02*
X62000000Y-151250000D01*
X27000000Y-156750000D02*
X27000000Y-112675000D01*
X31500000Y-161250000D02*
X27000000Y-156750000D01*
X56750000Y-161250000D02*
X31500000Y-161250000D01*
X60500000Y-157500000D02*
X56750000Y-161250000D01*
X60500000Y-152500000D02*
X60500000Y-157500000D01*
X62000000Y-151250000D02*
X60500000Y-152500000D01*
X84000000Y-53750000D02*
X84000000Y-53250000D01*
X84000000Y-53250000D02*
X88250000Y-49000000D01*
X94000000Y-49750000D02*
X94000000Y-52070000D01*
X93250000Y-49000000D02*
X94000000Y-49750000D01*
X88250000Y-49000000D02*
X93250000Y-49000000D01*
X94000000Y-52070000D02*
X94100000Y-52170000D01*
X80500000Y-59000000D02*
X80500000Y-56000000D01*
X82750000Y-53750000D02*
X84000000Y-53750000D01*
X80500000Y-56000000D02*
X82750000Y-53750000D01*
X75750000Y-64000000D02*
X75750000Y-63750000D01*
X75750000Y-63750000D02*
X80500000Y-59000000D01*
X42250000Y-53000000D02*
X42250000Y-50250000D01*
X53100000Y-49600000D02*
X53350000Y-51920000D01*
X52750000Y-49250000D02*
X53100000Y-49600000D01*
X51000000Y-49250000D02*
X52750000Y-49250000D01*
X43250000Y-49250000D02*
X51000000Y-49250000D01*
X42250000Y-50250000D02*
X43250000Y-49250000D01*
X36250000Y-59500000D02*
X36250000Y-57250000D01*
X39500000Y-55750000D02*
X42250000Y-53000000D01*
X37750000Y-55750000D02*
X39500000Y-55750000D01*
X36250000Y-57250000D02*
X37750000Y-55750000D01*
X36250000Y-59500000D02*
X36250000Y-60750000D01*
X36250000Y-60750000D02*
X30750000Y-66250000D01*
D28*
X94100000Y-51350000D02*
X94100000Y-52170000D01*
D30*
X27000000Y-112675000D02*
X27000000Y-96500000D01*
X27000000Y-96500000D02*
X27000000Y-90800000D01*
X27000000Y-112675000D02*
X27000000Y-111500000D01*
D28*
X83000000Y-122460000D02*
X83960000Y-122460000D01*
X97000000Y-138500000D02*
X100500000Y-142000000D01*
X90250000Y-138500000D02*
X97000000Y-138500000D01*
X87500000Y-135750000D02*
X90250000Y-138500000D01*
X87500000Y-126000000D02*
X87500000Y-135750000D01*
X83960000Y-122460000D02*
X87500000Y-126000000D01*
X53350000Y-51350000D02*
X53350000Y-51920000D01*
X85000000Y-145200000D02*
X85450000Y-145200000D01*
D31*
X100500000Y-142000000D02*
X109750000Y-142000000D01*
X109750000Y-142000000D02*
X111500000Y-142000000D01*
D28*
X111500000Y-142000000D02*
X111500000Y-141160000D01*
D31*
X100610000Y-142110000D02*
X100500000Y-142000000D01*
X99730000Y-156070000D02*
X103540000Y-156070000D01*
X103540000Y-156070000D02*
X103730000Y-155880000D01*
D28*
X69750000Y-124750000D02*
X69750000Y-128300000D01*
X69750000Y-128300000D02*
X65750000Y-132300000D01*
X70250000Y-137250000D02*
X71000000Y-137250000D01*
X71000000Y-137250000D02*
X74000000Y-140250000D01*
X65750000Y-132300000D02*
X65750000Y-132750000D01*
X65750000Y-132750000D02*
X70250000Y-137250000D01*
X83000000Y-125000000D02*
X83000000Y-130500000D01*
X83000000Y-130500000D02*
X85000000Y-132500000D01*
X84750000Y-132250000D02*
X85000000Y-132500000D01*
X81250000Y-137380000D02*
X80620000Y-137380000D01*
X80620000Y-137380000D02*
X77750000Y-140250000D01*
X85000000Y-132500000D02*
X85000000Y-133630000D01*
X85000000Y-133630000D02*
X81250000Y-137380000D01*
D29*
X88800000Y-99700000D02*
X88800000Y-94700000D01*
X112250000Y-72750000D02*
X115000000Y-70000000D01*
X112000000Y-72750000D02*
X112250000Y-72750000D01*
X111250000Y-73500000D02*
X112000000Y-72750000D01*
X111250000Y-75250000D02*
X111250000Y-73500000D01*
X111500000Y-75500000D02*
X111250000Y-75250000D01*
X111500000Y-83000000D02*
X111500000Y-75500000D01*
X112750000Y-84500000D02*
X111500000Y-83000000D01*
X116500000Y-84500000D02*
X112750000Y-84500000D01*
X118500000Y-86250000D02*
X116500000Y-84500000D01*
X118500000Y-92500000D02*
X118500000Y-86250000D01*
X117250000Y-93750000D02*
X118500000Y-92500000D01*
X89750000Y-93750000D02*
X117250000Y-93750000D01*
X88800000Y-94700000D02*
X89750000Y-93750000D01*
D28*
X82975000Y-106100000D02*
X82975000Y-102000000D01*
X77200000Y-112125000D02*
X82975000Y-106100000D01*
X88800000Y-99700000D02*
X88800000Y-102905000D01*
X88800000Y-102905000D02*
X88925000Y-103030000D01*
X88800000Y-102905000D02*
X88925000Y-103030000D01*
X112600000Y-60050000D02*
X111600000Y-60050000D01*
X111600000Y-60050000D02*
X110700000Y-60950000D01*
X110700000Y-60950000D02*
X110700000Y-64830000D01*
X110700000Y-64830000D02*
X113200000Y-67330000D01*
X58250000Y-123500000D02*
X58250000Y-129750000D01*
X58250000Y-129750000D02*
X58750000Y-130250000D01*
X60600000Y-83475000D02*
X59800000Y-82675000D01*
X64725000Y-83525000D02*
X60600000Y-83475000D01*
X64750000Y-83500000D02*
X64725000Y-83525000D01*
X74575000Y-85625000D02*
X72400000Y-83500000D01*
X74575000Y-94650000D02*
X74575000Y-85625000D01*
X72950000Y-97150000D02*
X74575000Y-94650000D01*
X72950000Y-115475000D02*
X72950000Y-103200000D01*
X72950000Y-103200000D02*
X72950000Y-102300000D01*
X72950000Y-102300000D02*
X72950000Y-97150000D01*
X72800000Y-115625000D02*
X72950000Y-115475000D01*
X60075000Y-80930000D02*
X60075000Y-82400000D01*
X59800000Y-82675000D02*
X57075000Y-82675000D01*
X60075000Y-82400000D02*
X59800000Y-82675000D01*
X50500000Y-126250000D02*
X47120000Y-126250000D01*
X47120000Y-126250000D02*
X46750000Y-126620000D01*
X50500000Y-126250000D02*
X50500000Y-128250000D01*
X52500000Y-130250000D02*
X58750000Y-130250000D01*
X50500000Y-128250000D02*
X52500000Y-130250000D01*
X69750000Y-119670000D02*
X62080000Y-119670000D01*
X62080000Y-119670000D02*
X58250000Y-123500000D01*
X100750000Y-108750000D02*
X98445000Y-108750000D01*
X98445000Y-108750000D02*
X96545000Y-110650000D01*
D29*
X119750000Y-88000000D02*
X119750000Y-85750000D01*
X116750000Y-82750000D02*
X116750000Y-80500000D01*
X119750000Y-85750000D02*
X116750000Y-82750000D01*
X100750000Y-108750000D02*
X100750000Y-108500000D01*
X100750000Y-108500000D02*
X103250000Y-106000000D01*
X103250000Y-106000000D02*
X103250000Y-102250000D01*
X103250000Y-102250000D02*
X103750000Y-101750000D01*
X103750000Y-101750000D02*
X111750000Y-101750000D01*
X111750000Y-101750000D02*
X114500000Y-99000000D01*
X114500000Y-99000000D02*
X117750000Y-99000000D01*
X117750000Y-99000000D02*
X119750000Y-97000000D01*
X119750000Y-97000000D02*
X119750000Y-88000000D01*
X119750000Y-88000000D02*
X119750000Y-87750000D01*
D28*
X96050000Y-122325000D02*
X95500000Y-121775000D01*
X95500000Y-121775000D02*
X95500000Y-116400000D01*
X104425000Y-130825000D02*
X103425000Y-130825000D01*
X103425000Y-130825000D02*
X102350000Y-131900000D01*
X102350000Y-131900000D02*
X92200000Y-131900000D01*
X92200000Y-131900000D02*
X91100000Y-130800000D01*
X91100000Y-130800000D02*
X91100000Y-128800000D01*
X96820000Y-110925000D02*
X96545000Y-110650000D01*
X120820000Y-74950000D02*
X120820000Y-78520000D01*
X120820000Y-78520000D02*
X120900000Y-78600000D01*
X67695000Y-88550000D02*
X67695000Y-88855000D01*
X67695000Y-88855000D02*
X64400000Y-92150000D01*
X70950000Y-115850000D02*
X69050000Y-117750000D01*
X70950000Y-98525000D02*
X70950000Y-115850000D01*
X69575000Y-97150000D02*
X70950000Y-98525000D01*
X65300000Y-97150000D02*
X69575000Y-97150000D01*
X64400000Y-96250000D02*
X65300000Y-97150000D01*
X64400000Y-92150000D02*
X64400000Y-96250000D01*
X67695000Y-88550000D02*
X70675000Y-88550000D01*
X70675000Y-88550000D02*
X70975000Y-88850000D01*
X41315000Y-121185000D02*
X40565000Y-121185000D01*
X35750000Y-127500000D02*
X38500000Y-130250000D01*
X35750000Y-126000000D02*
X35750000Y-127500000D01*
X40565000Y-121185000D02*
X35750000Y-126000000D01*
X83000000Y-119920000D02*
X75670000Y-119920000D01*
X41380000Y-121250000D02*
X41315000Y-121185000D01*
X41315000Y-121185000D02*
X39130000Y-119000000D01*
X47500000Y-121250000D02*
X41380000Y-121250000D01*
X51000000Y-117750000D02*
X47500000Y-121250000D01*
X73500000Y-117750000D02*
X69050000Y-117750000D01*
X69050000Y-117750000D02*
X51000000Y-117750000D01*
X75670000Y-119920000D02*
X73500000Y-117750000D01*
X83000000Y-119920000D02*
X82670000Y-119920000D01*
X91100000Y-128800000D02*
X90600000Y-128800000D01*
X90600000Y-128800000D02*
X90650000Y-128850000D01*
X83000000Y-119920000D02*
X86920000Y-119920000D01*
X86920000Y-119920000D02*
X91100000Y-128800000D01*
D31*
X116430000Y-155880000D02*
X115370000Y-155880000D01*
X115370000Y-155880000D02*
X110420000Y-160830000D01*
X71390000Y-155630000D02*
X72280000Y-159890000D01*
X73220000Y-160830000D02*
X110420000Y-160830000D01*
X72280000Y-159890000D02*
X73220000Y-160830000D01*
X71390000Y-155630000D02*
X65920000Y-155660000D01*
X65920000Y-155660000D02*
X65740000Y-155840000D01*
D30*
X40000000Y-80250000D02*
X43050000Y-80250000D01*
X43050000Y-80250000D02*
X44850000Y-82050000D01*
X44850000Y-82050000D02*
X44850000Y-91700000D01*
X52800000Y-91700000D02*
X44850000Y-91700000D01*
X44850000Y-91700000D02*
X38950000Y-91700000D01*
X38950000Y-91700000D02*
X38850000Y-91600000D01*
D28*
X70000000Y-84000000D02*
X68225000Y-84000000D01*
X68225000Y-84000000D02*
X65155000Y-80930000D01*
X70000000Y-84000000D02*
X70275000Y-84000000D01*
X68625000Y-91775000D02*
X67800000Y-92600000D01*
X71575000Y-91775000D02*
X68625000Y-91775000D01*
X73000000Y-90350000D02*
X71575000Y-91775000D01*
X73000000Y-86725000D02*
X73000000Y-90350000D01*
X70275000Y-84000000D02*
X73000000Y-86725000D01*
X64195000Y-77000000D02*
X64195000Y-76830000D01*
X60075000Y-88550000D02*
X60075000Y-91250000D01*
X60180000Y-91355000D02*
X60180000Y-92600000D01*
X60075000Y-91250000D02*
X60180000Y-91355000D01*
X62615000Y-88550000D02*
X60075000Y-88550000D01*
X41475000Y-106300000D02*
X41475000Y-102325000D01*
X55050000Y-89400000D02*
X55050000Y-89675000D01*
X56550000Y-90900000D02*
X55050000Y-89400000D01*
X56550000Y-95700000D02*
X56550000Y-90900000D01*
X54200000Y-98050000D02*
X56550000Y-95700000D01*
X45750000Y-98050000D02*
X54200000Y-98050000D01*
X41475000Y-102325000D02*
X45750000Y-98050000D01*
X67300000Y-77470000D02*
X67180000Y-77470000D01*
X67180000Y-77470000D02*
X65300000Y-79350000D01*
X65300000Y-79350000D02*
X62615000Y-79350000D01*
X56575000Y-77000000D02*
X60450000Y-77000000D01*
X62615000Y-79165000D02*
X62615000Y-79350000D01*
X62615000Y-79350000D02*
X62615000Y-80930000D01*
X60450000Y-77000000D02*
X62615000Y-79165000D01*
X56575000Y-77000000D02*
X56575000Y-79100000D01*
X53450000Y-88075000D02*
X55050000Y-89675000D01*
X53450000Y-82225000D02*
X53450000Y-88075000D01*
X56575000Y-79100000D02*
X53450000Y-82225000D01*
X44210000Y-126620000D02*
X41670000Y-126620000D01*
X54250000Y-72000000D02*
X51200000Y-75000000D01*
X51200000Y-75000000D02*
X50750000Y-75450000D01*
X114180000Y-108100000D02*
X111350000Y-108100000D01*
X111350000Y-108100000D02*
X111300000Y-108150000D01*
X111300000Y-108150000D02*
X111300000Y-111950000D01*
X111300000Y-111950000D02*
X112450000Y-113100000D01*
X102450000Y-113100000D02*
X103600000Y-113100000D01*
X105200000Y-114700000D02*
X105200000Y-118150000D01*
X103600000Y-113100000D02*
X105200000Y-114700000D01*
X118000000Y-117830000D02*
X118000000Y-118600000D01*
X118000000Y-118600000D02*
X116200000Y-121200000D01*
X116200000Y-121200000D02*
X107100000Y-121200000D01*
X107100000Y-121200000D02*
X105200000Y-119300000D01*
X105200000Y-119300000D02*
X105200000Y-118150000D01*
X114130000Y-104450000D02*
X111150000Y-104450000D01*
X111150000Y-104450000D02*
X111100000Y-104500000D01*
X114130000Y-104450000D02*
X115150000Y-104450000D01*
X118800000Y-108100000D02*
X121800000Y-108100000D01*
X115150000Y-104450000D02*
X118800000Y-108100000D01*
X121870000Y-108030000D02*
X121800000Y-108100000D01*
X118280000Y-74950000D02*
X118250000Y-81750000D01*
X123250000Y-99600000D02*
X121950000Y-100900000D01*
X123250000Y-86000000D02*
X123250000Y-99600000D01*
X121500000Y-84250000D02*
X123250000Y-86000000D01*
X120000000Y-84250000D02*
X121500000Y-84250000D01*
X118250000Y-81750000D02*
X120000000Y-84250000D01*
X121950000Y-100900000D02*
X121950000Y-104250000D01*
X121950000Y-104250000D02*
X121750000Y-104450000D01*
X109400000Y-67750000D02*
X109400000Y-66500000D01*
X109400000Y-66500000D02*
X108300000Y-65400000D01*
X105050000Y-60450000D02*
X105050000Y-62150000D01*
X105050000Y-62150000D02*
X108300000Y-65400000D01*
X104600000Y-60000000D02*
X105050000Y-60450000D01*
X104350000Y-60000000D02*
X104600000Y-60000000D01*
X102600000Y-58250000D02*
X104350000Y-60000000D01*
X102600000Y-57250000D02*
X102600000Y-58250000D01*
X102600000Y-57250000D02*
X102600000Y-59400000D01*
X102600000Y-59400000D02*
X101550000Y-60450000D01*
D29*
X80500000Y-51380000D02*
X82620000Y-51380000D01*
X99070000Y-54000000D02*
X100900000Y-52170000D01*
X87750000Y-54000000D02*
X99070000Y-54000000D01*
X87000000Y-53250000D02*
X87750000Y-54000000D01*
X82620000Y-51380000D02*
X82750000Y-51250000D01*
X80500000Y-51380000D02*
X77870000Y-51380000D01*
X77870000Y-51380000D02*
X74500000Y-54750000D01*
D28*
X101550000Y-68070000D02*
X100570000Y-68070000D01*
X100570000Y-68070000D02*
X98050000Y-65550000D01*
X106600000Y-79000000D02*
X106600000Y-85200000D01*
X110880000Y-89480000D02*
X113600000Y-89480000D01*
X106600000Y-85200000D02*
X110880000Y-89480000D01*
D30*
X91500000Y-63650000D02*
X91500000Y-64050000D01*
X91500000Y-64050000D02*
X99200000Y-71750000D01*
X99200000Y-71750000D02*
X99200000Y-79000000D01*
X106600000Y-79000000D02*
X103450000Y-79000000D01*
X103450000Y-79000000D02*
X99200000Y-79000000D01*
X99200000Y-79000000D02*
X98600000Y-79000000D01*
X98600000Y-79000000D02*
X96950000Y-80650000D01*
X92400000Y-57250000D02*
X92400000Y-62750000D01*
X92400000Y-62750000D02*
X91500000Y-63650000D01*
D29*
X92400000Y-57250000D02*
X92400000Y-55700000D01*
X97400000Y-59900000D02*
X98050000Y-60550000D01*
X97400000Y-55400000D02*
X97400000Y-59900000D01*
X97050000Y-55050000D02*
X97400000Y-55400000D01*
X93050000Y-55050000D02*
X97050000Y-55050000D01*
X92400000Y-55700000D02*
X93050000Y-55050000D01*
D28*
X98050000Y-60550000D02*
X98050000Y-61100000D01*
X98050000Y-61100000D02*
X100850000Y-63900000D01*
X100850000Y-63900000D02*
X103600000Y-63900000D01*
X103600000Y-63900000D02*
X105050000Y-65350000D01*
X105050000Y-65350000D02*
X105050000Y-68070000D01*
D29*
X100750000Y-98250000D02*
X110750000Y-98250000D01*
X99125000Y-102250000D02*
X99125000Y-101625000D01*
X100750000Y-100000000D02*
X100750000Y-98250000D01*
X100750000Y-98250000D02*
X100750000Y-96750000D01*
X99125000Y-101625000D02*
X100750000Y-100000000D01*
X113600000Y-97100000D02*
X112900000Y-97100000D01*
X112900000Y-97100000D02*
X111750000Y-98250000D01*
X111750000Y-98250000D02*
X110750000Y-98250000D01*
X110750000Y-96750000D02*
X110750000Y-98250000D01*
X110750000Y-98250000D02*
X110750000Y-99630000D01*
X110750000Y-99630000D02*
X110870000Y-99750000D01*
X99125000Y-102250000D02*
X99125000Y-105050000D01*
X99125000Y-105050000D02*
X96625000Y-107550000D01*
X96625000Y-107550000D02*
X92900000Y-107550000D01*
X92900000Y-107550000D02*
X91465000Y-108985000D01*
X91465000Y-108985000D02*
X91465000Y-110650000D01*
D28*
X110900000Y-99720000D02*
X110870000Y-99750000D01*
X110900000Y-99720000D02*
X110870000Y-99750000D01*
D29*
X90750000Y-96750000D02*
X93750000Y-96750000D01*
X88925000Y-108575000D02*
X88925000Y-110650000D01*
X92000000Y-105500000D02*
X88925000Y-108575000D01*
X97000000Y-105500000D02*
X92000000Y-105500000D01*
X98000000Y-104500000D02*
X97000000Y-105500000D01*
X98000000Y-101000000D02*
X98000000Y-104500000D01*
X93750000Y-96750000D02*
X98000000Y-101000000D01*
X90750000Y-96750000D02*
X90750000Y-96250000D01*
X90750000Y-96250000D02*
X93000000Y-95000000D01*
X114530000Y-95000000D02*
X117050000Y-97020000D01*
X93000000Y-95000000D02*
X114530000Y-95000000D01*
X90750000Y-96750000D02*
X90100000Y-96750000D01*
D28*
X117050000Y-97020000D02*
X117050000Y-97550000D01*
D30*
X95450000Y-73150000D02*
X94700000Y-73150000D01*
X94700000Y-73150000D02*
X91500000Y-76350000D01*
X85750000Y-85750000D02*
X92050000Y-85750000D01*
X92050000Y-85750000D02*
X96950000Y-90650000D01*
X96950000Y-90650000D02*
X105550000Y-90650000D01*
X105550000Y-90650000D02*
X106600000Y-91700000D01*
D28*
X118280000Y-67330000D02*
X118280000Y-68180000D01*
X123100000Y-80850000D02*
X121550000Y-82400000D01*
X123100000Y-73000000D02*
X123100000Y-80850000D01*
X118280000Y-68180000D02*
X123100000Y-73000000D01*
X121550000Y-82400000D02*
X120850000Y-82400000D01*
X120370000Y-63600000D02*
X119650000Y-63600000D01*
X119650000Y-63600000D02*
X118280000Y-64970000D01*
X118280000Y-64970000D02*
X118280000Y-67330000D01*
X115740000Y-74950000D02*
X113200000Y-74950000D01*
X113200000Y-74950000D02*
X113200000Y-82370000D01*
X113200000Y-82370000D02*
X113230000Y-82400000D01*
X109400000Y-75370000D02*
X109400000Y-76500000D01*
X117050000Y-87150000D02*
X117050000Y-89400000D01*
X116100000Y-86200000D02*
X117050000Y-87150000D01*
X111600000Y-86200000D02*
X116100000Y-86200000D01*
X110200000Y-84800000D02*
X111600000Y-86200000D01*
X110200000Y-77300000D02*
X110200000Y-84800000D01*
X109400000Y-76500000D02*
X110200000Y-77300000D01*
X115740000Y-67330000D02*
X115470000Y-67330000D01*
X115470000Y-67330000D02*
X111600000Y-71200000D01*
X109400000Y-72700000D02*
X109400000Y-75370000D01*
X110900000Y-71200000D02*
X109400000Y-72700000D01*
X111600000Y-71200000D02*
X110900000Y-71200000D01*
X112750000Y-63600000D02*
X113200000Y-63600000D01*
X113200000Y-63600000D02*
X115740000Y-66140000D01*
X115740000Y-66140000D02*
X115740000Y-67330000D01*
X109400000Y-75370000D02*
X109400000Y-75450000D01*
X91465000Y-103030000D02*
X94005000Y-103030000D01*
X93560000Y-102650000D02*
X93560000Y-103060000D01*
X118000000Y-112750000D02*
X117420000Y-112750000D01*
X117420000Y-112750000D02*
X112820000Y-118150000D01*
X118000000Y-112750000D02*
X120950000Y-112700000D01*
X122500000Y-114250000D02*
X122500000Y-122500000D01*
X120950000Y-112700000D02*
X122500000Y-114250000D01*
X122500000Y-122500000D02*
X122000000Y-123000000D01*
X120820000Y-67330000D02*
X120820000Y-66680000D01*
X120820000Y-66680000D02*
X122300000Y-65200000D01*
X122300000Y-65200000D02*
X122300000Y-59050000D01*
X122300000Y-59050000D02*
X120300000Y-57050000D01*
X120300000Y-57050000D02*
X108750000Y-57050000D01*
X106100000Y-104500000D02*
X106100000Y-105730000D01*
X106100000Y-105730000D02*
X103680000Y-108150000D01*
X112820000Y-118150000D02*
X111350000Y-118150000D01*
X104600000Y-108150000D02*
X103680000Y-108150000D01*
X107600000Y-111150000D02*
X104600000Y-108150000D01*
X107600000Y-114400000D02*
X107600000Y-111150000D01*
X111350000Y-118150000D02*
X107600000Y-114400000D01*
X118000000Y-112750000D02*
X118000000Y-113050000D01*
X112820000Y-118150000D02*
X112200000Y-118150000D01*
X104300000Y-52170000D02*
X107270000Y-52170000D01*
X108750000Y-53650000D02*
X108750000Y-57050000D01*
X108750000Y-57050000D02*
X108750000Y-59950000D01*
X107270000Y-52170000D02*
X108750000Y-53650000D01*
X108750000Y-59950000D02*
X108300000Y-60400000D01*
M02*
