G04 #@! TF.FileFunction,Copper,L2,Bot,Signal*
%FSLAX46Y46*%
G04 Gerber Fmt 4.6, Leading zero omitted, Abs format (unit mm)*
G04 Created by KiCad (PCBNEW 4.0.7) date 11/12/20 01:48:35*
%MOMM*%
%LPD*%
G01*
G04 APERTURE LIST*
%ADD10C,0.100000*%
%ADD11R,1.600000X1.600000*%
%ADD12O,1.600000X1.600000*%
%ADD13R,2.400000X2.400000*%
%ADD14C,2.400000*%
%ADD15R,1.800000X1.800000*%
%ADD16O,1.800000X1.800000*%
%ADD17C,1.600000*%
%ADD18O,2.400000X2.400000*%
%ADD19R,2.000000X2.000000*%
%ADD20C,2.000000*%
%ADD21R,3.200000X3.200000*%
%ADD22O,3.200000X3.200000*%
%ADD23R,2.200000X2.200000*%
%ADD24O,2.200000X2.200000*%
%ADD25R,3.000000X3.000000*%
%ADD26C,3.000000*%
%ADD27C,5.000000*%
%ADD28C,0.600000*%
%ADD29C,1.000000*%
%ADD30C,0.500000*%
%ADD31C,2.000000*%
%ADD32C,4.000000*%
G04 APERTURE END LIST*
D10*
D11*
X103250000Y-99750000D03*
D12*
X110870000Y-99750000D03*
D13*
X93000000Y-142000000D03*
D14*
X100500000Y-142000000D03*
D15*
X48000000Y-58000000D03*
D16*
X49700000Y-52920000D03*
X51400000Y-58000000D03*
X53100000Y-52920000D03*
X54800000Y-58000000D03*
X56500000Y-52920000D03*
X58200000Y-58000000D03*
X59900000Y-52920000D03*
X61600000Y-58000000D03*
X63300000Y-52920000D03*
X65000000Y-58000000D03*
D17*
X59700000Y-68100000D03*
X54700000Y-68100000D03*
D14*
X73750000Y-145500000D03*
D18*
X73750000Y-132800000D03*
D13*
X38000000Y-142000000D03*
D14*
X30500000Y-142000000D03*
D17*
X45275000Y-111175000D03*
X55275000Y-111175000D03*
X62550000Y-104575000D03*
X57550000Y-104575000D03*
X62375000Y-100725000D03*
X57375000Y-100725000D03*
X66500000Y-66500000D03*
X66500000Y-61500000D03*
D11*
X29500000Y-60500000D03*
D17*
X29500000Y-58000000D03*
X64250000Y-72000000D03*
D12*
X54250000Y-72000000D03*
D13*
X50000000Y-142000000D03*
D14*
X57500000Y-142000000D03*
D17*
X34250000Y-115750000D03*
D12*
X34250000Y-105750000D03*
D17*
X45350000Y-61350000D03*
X40350000Y-61350000D03*
X42250000Y-53000000D03*
X42250000Y-58000000D03*
X66500000Y-140750000D03*
X66500000Y-145750000D03*
X77750000Y-145250000D03*
X77750000Y-140250000D03*
D11*
X58250000Y-123500000D03*
D17*
X55750000Y-123500000D03*
D11*
X93600000Y-128800000D03*
D17*
X91100000Y-128800000D03*
X56250000Y-85250000D03*
X56250000Y-80250000D03*
X70975000Y-88850000D03*
X70975000Y-93850000D03*
D19*
X44000000Y-68500000D03*
D20*
X40500000Y-68500000D03*
D19*
X31000000Y-70500000D03*
D20*
X31000000Y-67000000D03*
D17*
X51500000Y-126500000D03*
X51500000Y-121500000D03*
X37500000Y-119250000D03*
X32500000Y-119250000D03*
D21*
X47850000Y-155770000D03*
D22*
X35150000Y-155770000D03*
D21*
X87030000Y-156070000D03*
D22*
X99730000Y-156070000D03*
D11*
X35250000Y-130750000D03*
D12*
X35250000Y-123130000D03*
D11*
X32575000Y-123250000D03*
D12*
X32575000Y-130870000D03*
D21*
X53040000Y-155840000D03*
D22*
X65740000Y-155840000D03*
D21*
X116430000Y-155880000D03*
D22*
X103730000Y-155880000D03*
D23*
X70250000Y-138000000D03*
D24*
X70250000Y-145620000D03*
D23*
X81250000Y-145000000D03*
D24*
X81250000Y-137380000D03*
D25*
X67900000Y-104875000D03*
D26*
X67900000Y-109955000D03*
D25*
X40000000Y-80250000D03*
D26*
X40000000Y-85330000D03*
D15*
X69750000Y-124750000D03*
D16*
X69750000Y-122210000D03*
X69750000Y-119670000D03*
D17*
X75500000Y-99000000D03*
D12*
X67880000Y-99000000D03*
D17*
X61250000Y-115500000D03*
D12*
X61250000Y-107880000D03*
D17*
X58000000Y-115500000D03*
D12*
X58000000Y-107880000D03*
D17*
X47175000Y-106825000D03*
D12*
X54795000Y-106825000D03*
D17*
X54825000Y-102500000D03*
D12*
X47205000Y-102500000D03*
D17*
X56500000Y-88500000D03*
D12*
X56500000Y-96120000D03*
D17*
X56500000Y-75500000D03*
D12*
X64120000Y-75500000D03*
D17*
X67300000Y-69850000D03*
D12*
X67300000Y-77470000D03*
D17*
X36200000Y-61250000D03*
D12*
X36200000Y-53630000D03*
D17*
X62400000Y-61600000D03*
D12*
X54780000Y-61600000D03*
D17*
X62400000Y-64800000D03*
D12*
X54780000Y-64800000D03*
D14*
X50750000Y-62750000D03*
D18*
X50750000Y-75450000D03*
D14*
X49000000Y-91750000D03*
D18*
X49000000Y-79050000D03*
D14*
X85000000Y-132500000D03*
D18*
X85000000Y-145200000D03*
D14*
X58750000Y-130250000D03*
D18*
X46050000Y-130250000D03*
D14*
X117125000Y-130825000D03*
D18*
X104425000Y-130825000D03*
D11*
X60075000Y-88550000D03*
D12*
X67695000Y-80930000D03*
X62615000Y-88550000D03*
X65155000Y-80930000D03*
X65155000Y-88550000D03*
X62615000Y-80930000D03*
X67695000Y-88550000D03*
X60075000Y-80930000D03*
D11*
X48000000Y-119250000D03*
D12*
X40380000Y-126870000D03*
X45460000Y-119250000D03*
X42920000Y-126870000D03*
X42920000Y-119250000D03*
X45460000Y-126870000D03*
X40380000Y-119250000D03*
X48000000Y-126870000D03*
D25*
X71390000Y-155630000D03*
D26*
X76470000Y-155630000D03*
X81550000Y-155630000D03*
D13*
X119000000Y-142000000D03*
D14*
X111500000Y-142000000D03*
D15*
X83000000Y-125000000D03*
D16*
X83000000Y-122460000D03*
X83000000Y-119920000D03*
D14*
X38850000Y-101600000D03*
X38850000Y-91600000D03*
D17*
X38750000Y-114000000D03*
D12*
X38750000Y-106380000D03*
D17*
X42000000Y-106250000D03*
D12*
X42000000Y-113870000D03*
D17*
X112450000Y-113100000D03*
X102450000Y-113100000D03*
X106100000Y-104500000D03*
X111100000Y-104500000D03*
X116950000Y-100900000D03*
X121950000Y-100900000D03*
X109190000Y-68030000D03*
X109190000Y-63030000D03*
X120900000Y-78600000D03*
X115900000Y-78600000D03*
X111750000Y-56000000D03*
X111750000Y-51000000D03*
D19*
X85600000Y-75050000D03*
D20*
X82100000Y-75050000D03*
D17*
X83850000Y-56600000D03*
X83850000Y-61600000D03*
X87450000Y-63200000D03*
X87450000Y-68200000D03*
D19*
X75600000Y-68850000D03*
D20*
X75600000Y-65350000D03*
D11*
X74500000Y-57250000D03*
D17*
X74500000Y-54750000D03*
X101600000Y-68600000D03*
X96600000Y-68600000D03*
X100750000Y-96750000D03*
D12*
X90750000Y-96750000D03*
D17*
X105450000Y-73150000D03*
D12*
X95450000Y-73150000D03*
D17*
X88800000Y-99700000D03*
X93800000Y-99700000D03*
X100750000Y-108750000D03*
X100750000Y-103750000D03*
D11*
X110750000Y-96750000D03*
D12*
X103130000Y-96750000D03*
D25*
X118000000Y-112750000D03*
D26*
X118000000Y-117830000D03*
D25*
X85750000Y-85750000D03*
D26*
X85750000Y-90830000D03*
D14*
X96950000Y-80650000D03*
X96950000Y-90650000D03*
D17*
X105200000Y-118150000D03*
D12*
X112820000Y-118150000D03*
D17*
X111300000Y-108150000D03*
D12*
X103680000Y-108150000D03*
D17*
X121800000Y-108100000D03*
D12*
X114180000Y-108100000D03*
D17*
X121750000Y-104450000D03*
D12*
X114130000Y-104450000D03*
D17*
X120850000Y-82400000D03*
D12*
X113230000Y-82400000D03*
D17*
X113520000Y-64120000D03*
D12*
X121140000Y-64120000D03*
D17*
X113320000Y-60990000D03*
D12*
X120940000Y-60990000D03*
D17*
X80300000Y-61850000D03*
D12*
X80300000Y-54230000D03*
D17*
X104300000Y-65300000D03*
D12*
X96680000Y-65300000D03*
D17*
X104300000Y-62000000D03*
D12*
X96680000Y-62000000D03*
D17*
X113600000Y-97100000D03*
D12*
X113600000Y-89480000D03*
D17*
X117050000Y-89400000D03*
D12*
X117050000Y-97020000D03*
D14*
X91500000Y-63650000D03*
D18*
X91500000Y-76350000D03*
D14*
X106600000Y-91700000D03*
D18*
X106600000Y-79000000D03*
D11*
X113200000Y-74950000D03*
D12*
X120820000Y-67330000D03*
X115740000Y-74950000D03*
X118280000Y-67330000D03*
X118280000Y-74950000D03*
X115740000Y-67330000D03*
X120820000Y-74950000D03*
X113200000Y-67330000D03*
D15*
X89200000Y-58100000D03*
D16*
X90900000Y-53020000D03*
X92600000Y-58100000D03*
X94300000Y-53020000D03*
X96000000Y-58100000D03*
X97700000Y-53020000D03*
X99400000Y-58100000D03*
X101100000Y-53020000D03*
X102800000Y-58100000D03*
X104500000Y-53020000D03*
X106200000Y-58100000D03*
D11*
X88925000Y-110650000D03*
D12*
X96545000Y-103030000D03*
X91465000Y-110650000D03*
X94005000Y-103030000D03*
X94005000Y-110650000D03*
X91465000Y-103030000D03*
X96545000Y-110650000D03*
X88925000Y-103030000D03*
D17*
X122000000Y-123000000D03*
D12*
X122000000Y-130620000D03*
D27*
X121000000Y-160000000D03*
X28000000Y-160000000D03*
X28000000Y-52000000D03*
X121000000Y-52000000D03*
D28*
X41400000Y-56400000D03*
X38900000Y-53650000D03*
X67000000Y-83250000D03*
X72250000Y-113500000D03*
X114810000Y-70920000D03*
X82975000Y-102000000D03*
X77200000Y-112125000D03*
X95000000Y-116000000D03*
X96750000Y-123250000D03*
X116750000Y-80500000D03*
X85000000Y-54300000D03*
D29*
X54795000Y-107380000D02*
X52075000Y-110100000D01*
X52075000Y-110100000D02*
X52075000Y-115500000D01*
X54795000Y-106825000D02*
X54795000Y-107380000D01*
X45275000Y-111175000D02*
X46900000Y-111175000D01*
X51225000Y-115500000D02*
X52075000Y-115500000D01*
X52075000Y-115500000D02*
X58000000Y-115500000D01*
X46900000Y-111175000D02*
X51225000Y-115500000D01*
X55275000Y-111175000D02*
X56925000Y-111175000D01*
X56925000Y-111175000D02*
X61250000Y-115500000D01*
X67900000Y-109955000D02*
X63170000Y-113580000D01*
X63170000Y-113580000D02*
X61250000Y-115500000D01*
X67900000Y-104875000D02*
X62850000Y-104875000D01*
X62850000Y-104875000D02*
X62550000Y-104575000D01*
X67695000Y-80930000D02*
X73930000Y-80930000D01*
X76000000Y-83000000D02*
X76000000Y-98500000D01*
X73930000Y-80930000D02*
X76000000Y-83000000D01*
X76000000Y-98500000D02*
X75500000Y-99000000D01*
X63300000Y-52920000D02*
X65020000Y-52920000D01*
X67300000Y-60700000D02*
X66500000Y-61500000D01*
X67300000Y-55200000D02*
X67300000Y-60700000D01*
X65020000Y-52920000D02*
X67300000Y-55200000D01*
X62375000Y-100725000D02*
X62375000Y-104400000D01*
X62375000Y-104400000D02*
X62550000Y-104575000D01*
X61250000Y-107880000D02*
X58000000Y-107880000D01*
X62550000Y-104575000D02*
X62550000Y-106580000D01*
X62550000Y-106580000D02*
X61250000Y-107880000D01*
X67075000Y-104050000D02*
X67900000Y-104875000D01*
X62275000Y-100225000D02*
X62375000Y-100325000D01*
X62375000Y-100325000D02*
X62375000Y-100725000D01*
X67695000Y-80930000D02*
X68070000Y-80930000D01*
X68070000Y-80930000D02*
X69250000Y-79750000D01*
X69250000Y-79750000D02*
X69250000Y-64250000D01*
X69250000Y-64250000D02*
X66500000Y-61500000D01*
X62850000Y-104875000D02*
X62550000Y-104575000D01*
X67850000Y-104825000D02*
X67900000Y-104875000D01*
D30*
X67000000Y-61000000D02*
X66500000Y-61500000D01*
X63380000Y-53000000D02*
X63300000Y-52920000D01*
D29*
X57550000Y-104575000D02*
X47900000Y-104575000D01*
X47253370Y-105221630D02*
X47253370Y-105221619D01*
X47900000Y-104575000D02*
X47253370Y-105221630D01*
X47205000Y-102500000D02*
X47253370Y-105221619D01*
X47253370Y-105221619D02*
X47280000Y-106720000D01*
X47280000Y-106720000D02*
X47175000Y-106825000D01*
X57375000Y-100725000D02*
X57375000Y-98625000D01*
X64000000Y-89955000D02*
X65155000Y-88550000D01*
X64000000Y-95000000D02*
X64000000Y-89955000D01*
X61250000Y-98000000D02*
X64000000Y-95000000D01*
X58500000Y-98000000D02*
X61250000Y-98000000D01*
X57375000Y-98625000D02*
X58500000Y-98000000D01*
X57375000Y-100725000D02*
X57375000Y-100225000D01*
X57375000Y-100725000D02*
X56600000Y-100725000D01*
X56600000Y-100725000D02*
X54825000Y-102500000D01*
X61600000Y-58000000D02*
X61600000Y-60800000D01*
X61600000Y-60800000D02*
X62400000Y-61600000D01*
X62400000Y-64800000D02*
X64800000Y-64800000D01*
X64800000Y-64800000D02*
X66500000Y-66500000D01*
X62400000Y-61600000D02*
X62400000Y-64800000D01*
X62000000Y-61200000D02*
X62400000Y-61600000D01*
X66500000Y-66500000D02*
X66500000Y-67250000D01*
X66500000Y-67250000D02*
X67300000Y-68050000D01*
X67300000Y-68050000D02*
X67300000Y-69850000D01*
D30*
X61600000Y-58000000D02*
X62000000Y-58000000D01*
X61600000Y-58000000D02*
X61600000Y-58100000D01*
D29*
X54780000Y-64800000D02*
X56400000Y-64800000D01*
X56400000Y-64800000D02*
X59700000Y-68100000D01*
X54700000Y-68100000D02*
X52000000Y-68100000D01*
X52000000Y-68100000D02*
X50750000Y-69350000D01*
X50750000Y-62750000D02*
X50750000Y-63250000D01*
X54780000Y-61600000D02*
X54780000Y-61330000D01*
X54780000Y-61330000D02*
X51400000Y-58000000D01*
D31*
X44050000Y-76600000D02*
X44050000Y-76200000D01*
X50750000Y-69500000D02*
X50750000Y-69350000D01*
X50750000Y-69350000D02*
X50750000Y-62750000D01*
X44050000Y-76200000D02*
X50750000Y-69500000D01*
X38850000Y-101600000D02*
X36050000Y-101600000D01*
X46450000Y-79000000D02*
X49000000Y-79050000D01*
X43500000Y-76050000D02*
X44050000Y-76600000D01*
X44050000Y-76600000D02*
X46450000Y-79000000D01*
X34500000Y-76050000D02*
X43500000Y-76050000D01*
X34300000Y-78000000D02*
X34500000Y-76050000D01*
X34300000Y-98600000D02*
X34300000Y-78000000D01*
X36050000Y-101600000D02*
X34300000Y-98600000D01*
D29*
X38850000Y-101600000D02*
X38850000Y-105780000D01*
X38850000Y-105780000D02*
X38750000Y-106380000D01*
D31*
X51400000Y-58000000D02*
X51400000Y-62100000D01*
X51400000Y-62100000D02*
X50750000Y-62750000D01*
D29*
X51400000Y-62100000D02*
X50750000Y-62750000D01*
D30*
X51400000Y-57600000D02*
X51400000Y-58000000D01*
X36200000Y-53630000D02*
X38880000Y-53630000D01*
X58300000Y-55300000D02*
X59900000Y-53700000D01*
X45200000Y-55300000D02*
X58300000Y-55300000D01*
X44400000Y-56100000D02*
X45200000Y-55300000D01*
X41700000Y-56100000D02*
X44400000Y-56100000D01*
X41400000Y-56400000D02*
X41700000Y-56100000D01*
X38880000Y-53630000D02*
X38900000Y-53650000D01*
X59900000Y-53700000D02*
X59900000Y-52920000D01*
X36200000Y-53630000D02*
X33870000Y-53630000D01*
X33870000Y-53630000D02*
X29500000Y-58000000D01*
D31*
X87450000Y-63200000D02*
X87450000Y-62850000D01*
X87450000Y-62850000D02*
X89200000Y-61100000D01*
X89200000Y-61100000D02*
X89200000Y-58100000D01*
X87450000Y-63200000D02*
X87300000Y-63200000D01*
X87300000Y-63200000D02*
X83950000Y-66550000D01*
X83950000Y-66550000D02*
X83950000Y-73400000D01*
X83950000Y-73400000D02*
X85600000Y-75050000D01*
X45350000Y-61350000D02*
X45350000Y-67150000D01*
X45350000Y-67150000D02*
X44000000Y-68500000D01*
X48000000Y-58000000D02*
X48000000Y-58700000D01*
X48000000Y-58700000D02*
X45350000Y-61350000D01*
D29*
X73750000Y-145500000D02*
X73750000Y-146250000D01*
X73750000Y-146250000D02*
X75900000Y-148400000D01*
D31*
X96250000Y-113550000D02*
X96250000Y-113750000D01*
X96250000Y-113550000D02*
X93475000Y-113550000D01*
X85325000Y-103475000D02*
X85325000Y-97125000D01*
X85325000Y-97125000D02*
X81700000Y-93500000D01*
X85325000Y-103475000D02*
X85325000Y-113530824D01*
X53040000Y-152060000D02*
X56700000Y-148400000D01*
X56700000Y-148400000D02*
X70850000Y-148400000D01*
X70850000Y-148400000D02*
X75900000Y-148400000D01*
X75900000Y-148400000D02*
X113350000Y-148400000D01*
X113350000Y-148400000D02*
X115550000Y-146200000D01*
X115550000Y-146200000D02*
X115550000Y-138900000D01*
X115550000Y-138900000D02*
X113400000Y-136750000D01*
X113400000Y-136750000D02*
X113400000Y-129500000D01*
X53040000Y-155840000D02*
X53040000Y-152060000D01*
X93475000Y-113550000D02*
X85325000Y-113530824D01*
X81700000Y-93500000D02*
X81700000Y-81000000D01*
X113400000Y-126350000D02*
X113400000Y-129500000D01*
X110825000Y-123775000D02*
X113400000Y-126350000D01*
X106275000Y-123775000D02*
X110825000Y-123775000D01*
X96250000Y-113750000D02*
X106275000Y-123775000D01*
X44000000Y-68500000D02*
X44000000Y-70200000D01*
X44000000Y-70200000D02*
X40900000Y-73300000D01*
X40900000Y-73300000D02*
X30900000Y-73300000D01*
X30900000Y-73300000D02*
X30000000Y-74200000D01*
X30000000Y-74200000D02*
X30000000Y-80050000D01*
X30000000Y-80050000D02*
X30000000Y-92250000D01*
X30000000Y-91750000D02*
X30000000Y-92250000D01*
X30000000Y-92250000D02*
X30000000Y-118150000D01*
X87450000Y-63350000D02*
X87450000Y-63150000D01*
X85600000Y-75050000D02*
X85650000Y-78550000D01*
X85650000Y-78550000D02*
X81700000Y-81000000D01*
X81700000Y-81000000D02*
X81700000Y-80600000D01*
D29*
X50000000Y-142000000D02*
X50000000Y-140600000D01*
X54100000Y-136500000D02*
X62250000Y-136500000D01*
X50000000Y-140600000D02*
X54100000Y-136500000D01*
X69750000Y-122210000D02*
X67290000Y-122210000D01*
X62250000Y-127250000D02*
X62250000Y-136500000D01*
X67290000Y-122210000D02*
X62250000Y-127250000D01*
D31*
X44500000Y-68000000D02*
X44000000Y-68500000D01*
X30000000Y-118150000D02*
X30000000Y-134000000D01*
X30000000Y-134000000D02*
X38000000Y-142000000D01*
X30000000Y-118150000D02*
X30000000Y-119000000D01*
D32*
X38000000Y-142000000D02*
X38000000Y-145920000D01*
X38000000Y-145920000D02*
X47850000Y-155770000D01*
D29*
X44500000Y-68000000D02*
X44000000Y-68500000D01*
X48000000Y-58000000D02*
X47750000Y-58000000D01*
D32*
X50000000Y-142000000D02*
X38000000Y-142000000D01*
X53040000Y-155840000D02*
X47870000Y-155750000D01*
X47870000Y-155750000D02*
X47850000Y-155770000D01*
D29*
X38750000Y-114000000D02*
X38750000Y-114750000D01*
X38750000Y-114750000D02*
X40500000Y-116500000D01*
X42710000Y-116500000D02*
X45460000Y-119250000D01*
X40500000Y-116500000D02*
X42710000Y-116500000D01*
X35250000Y-123130000D02*
X32695000Y-123130000D01*
X32695000Y-123130000D02*
X32575000Y-123250000D01*
X34250000Y-115750000D02*
X34250000Y-118250000D01*
X35250000Y-119250000D02*
X35250000Y-123130000D01*
X34250000Y-118250000D02*
X35250000Y-119250000D01*
X38750000Y-114000000D02*
X36000000Y-114000000D01*
X36000000Y-114000000D02*
X34250000Y-115750000D01*
X42000000Y-113870000D02*
X43620000Y-113870000D01*
X48000000Y-118250000D02*
X48000000Y-119250000D01*
X43620000Y-113870000D02*
X48000000Y-118250000D01*
X34250000Y-105750000D02*
X39200000Y-110500000D01*
X41475000Y-112775000D02*
X42000000Y-113870000D01*
X39200000Y-110500000D02*
X41475000Y-112775000D01*
X83850000Y-56600000D02*
X83850000Y-56000000D01*
X83850000Y-56000000D02*
X83200000Y-55350000D01*
D30*
X83850000Y-56000000D02*
X83200000Y-55350000D01*
D31*
X83200000Y-56500000D02*
X83200000Y-55350000D01*
X83200000Y-55350000D02*
X83200000Y-51750000D01*
X94300000Y-51200000D02*
X94300000Y-53020000D01*
X93250000Y-50150000D02*
X94300000Y-51200000D01*
X85550000Y-50150000D02*
X93250000Y-50150000D01*
X83200000Y-51750000D02*
X85550000Y-50150000D01*
X80300000Y-61850000D02*
X80300000Y-63650000D01*
X78600000Y-65350000D02*
X75600000Y-65350000D01*
X80300000Y-63650000D02*
X78600000Y-65350000D01*
X83200000Y-56500000D02*
X82750000Y-56600000D01*
X80300000Y-59050000D02*
X80300000Y-61850000D01*
X82750000Y-56600000D02*
X80300000Y-59050000D01*
X31000000Y-67000000D02*
X30000000Y-67000000D01*
X30000000Y-67000000D02*
X27000000Y-70000000D01*
X27000000Y-90800000D02*
X27000000Y-70000000D01*
X36200000Y-61250000D02*
X36250000Y-65750000D01*
X35000000Y-67000000D02*
X31000000Y-67000000D01*
X36250000Y-65750000D02*
X35000000Y-67000000D01*
X27000000Y-150000000D02*
X35000000Y-150000000D01*
X40000000Y-158000000D02*
X43100000Y-161100000D01*
X40000000Y-155000000D02*
X40000000Y-158000000D01*
X35000000Y-150000000D02*
X40000000Y-155000000D01*
D29*
X100500000Y-142000000D02*
X97000000Y-145500000D01*
X97000000Y-145500000D02*
X85300000Y-145500000D01*
X85300000Y-145500000D02*
X85000000Y-145200000D01*
X85000000Y-145200000D02*
X85450000Y-145200000D01*
D31*
X109750000Y-130750000D02*
X109750000Y-129575000D01*
X109750000Y-142000000D02*
X109750000Y-130750000D01*
X80600000Y-115975000D02*
X77250000Y-115975000D01*
X75150000Y-105000000D02*
X78950000Y-101200000D01*
X75150000Y-113875000D02*
X75150000Y-105000000D01*
X77250000Y-115975000D02*
X75150000Y-113875000D01*
X72500000Y-66650000D02*
X75600000Y-65350000D01*
X72000000Y-67150000D02*
X72500000Y-66650000D01*
X72000000Y-75250000D02*
X72000000Y-67150000D01*
X75000000Y-78250000D02*
X72000000Y-75250000D01*
X77250000Y-78250000D02*
X75000000Y-78250000D01*
X78950000Y-81650000D02*
X77250000Y-78250000D01*
X78950000Y-101200000D02*
X78950000Y-81650000D01*
X86525000Y-115975000D02*
X96900000Y-126350000D01*
X80600000Y-115975000D02*
X86525000Y-115975000D01*
X97675000Y-127125000D02*
X96900000Y-126350000D01*
X107300000Y-127125000D02*
X97675000Y-127125000D01*
X109750000Y-129575000D02*
X107300000Y-127125000D01*
X27000000Y-96500000D02*
X27000000Y-90800000D01*
X27000000Y-112675000D02*
X27000000Y-96500000D01*
X93700000Y-151250000D02*
X94910000Y-151250000D01*
X62000000Y-151250000D02*
X60500000Y-152500000D01*
X60500000Y-152500000D02*
X60500000Y-157500000D01*
X60500000Y-157500000D02*
X56750000Y-161250000D01*
X56750000Y-161250000D02*
X43100000Y-161100000D01*
X93700000Y-151250000D02*
X62000000Y-151250000D01*
X94910000Y-151250000D02*
X99730000Y-156070000D01*
X27000000Y-150000000D02*
X27000000Y-112675000D01*
X75600000Y-65350000D02*
X75600000Y-65100000D01*
X42250000Y-53000000D02*
X42480000Y-50540000D01*
X53100000Y-51000000D02*
X53100000Y-52920000D01*
X52750000Y-50650000D02*
X53100000Y-51000000D01*
X51130000Y-50140000D02*
X52750000Y-50650000D01*
X43380000Y-50140000D02*
X51130000Y-50140000D01*
X42480000Y-50540000D02*
X43380000Y-50140000D01*
X36200000Y-61250000D02*
X36250000Y-57250000D01*
X39500000Y-55750000D02*
X42250000Y-53000000D01*
X37750000Y-55750000D02*
X39500000Y-55750000D01*
X36250000Y-57250000D02*
X37750000Y-55750000D01*
X27000000Y-112675000D02*
X27000000Y-111500000D01*
D29*
X83000000Y-122460000D02*
X83960000Y-122460000D01*
X97000000Y-138500000D02*
X100500000Y-142000000D01*
X90250000Y-138500000D02*
X97000000Y-138500000D01*
X87500000Y-135750000D02*
X90250000Y-138500000D01*
X87500000Y-126000000D02*
X87500000Y-135750000D01*
X83960000Y-122460000D02*
X87500000Y-126000000D01*
X53100000Y-52350000D02*
X53100000Y-52920000D01*
D32*
X100500000Y-142000000D02*
X109750000Y-142000000D01*
X109750000Y-142000000D02*
X111500000Y-142000000D01*
D29*
X111500000Y-142000000D02*
X111500000Y-141160000D01*
D32*
X100610000Y-142110000D02*
X100500000Y-142000000D01*
X99730000Y-156070000D02*
X103540000Y-156070000D01*
X103540000Y-156070000D02*
X103730000Y-155880000D01*
D29*
X69750000Y-124750000D02*
X72000000Y-124750000D01*
X73750000Y-126500000D02*
X73750000Y-132800000D01*
X72000000Y-124750000D02*
X73750000Y-126500000D01*
X73750000Y-132800000D02*
X72250000Y-134000000D01*
X72250000Y-134000000D02*
X70250000Y-138000000D01*
X66500000Y-140750000D02*
X67250000Y-140750000D01*
X67250000Y-140750000D02*
X70250000Y-138000000D01*
X80620000Y-137380000D02*
X77750000Y-140250000D01*
X85000000Y-133630000D02*
X81250000Y-137380000D01*
X83000000Y-125000000D02*
X83000000Y-130500000D01*
X83000000Y-130500000D02*
X85000000Y-132500000D01*
X84750000Y-132250000D02*
X85000000Y-132500000D01*
X85000000Y-132500000D02*
X85000000Y-133630000D01*
X81250000Y-137380000D02*
X80620000Y-137380000D01*
X113200000Y-67330000D02*
X109890000Y-67330000D01*
X109890000Y-67330000D02*
X109190000Y-68030000D01*
X60075000Y-80930000D02*
X60075000Y-81425000D01*
X60075000Y-81425000D02*
X56250000Y-85250000D01*
X72000000Y-83250000D02*
X67000000Y-83250000D01*
X73500000Y-83750000D02*
X72000000Y-83250000D01*
X73500000Y-94250000D02*
X73500000Y-83750000D01*
X72750000Y-98750000D02*
X73500000Y-94250000D01*
X72750000Y-113000000D02*
X72750000Y-98750000D01*
X72250000Y-113500000D02*
X72750000Y-113000000D01*
X51500000Y-126500000D02*
X57250000Y-126500000D01*
X57250000Y-126500000D02*
X58250000Y-127500000D01*
D30*
X88800000Y-99700000D02*
X88800000Y-94700000D01*
X112250000Y-72750000D02*
X114810000Y-70920000D01*
X112000000Y-72750000D02*
X112250000Y-72750000D01*
X111250000Y-73500000D02*
X112000000Y-72750000D01*
X111250000Y-75250000D02*
X111250000Y-73500000D01*
X111500000Y-75500000D02*
X111250000Y-75250000D01*
X111500000Y-83000000D02*
X111500000Y-75500000D01*
X112750000Y-84500000D02*
X111500000Y-83000000D01*
X116500000Y-84500000D02*
X112750000Y-84500000D01*
X119250000Y-87000000D02*
X116500000Y-84500000D01*
X119250000Y-92000000D02*
X119250000Y-87000000D01*
X117250000Y-93750000D02*
X119250000Y-92000000D01*
X89750000Y-93750000D02*
X117250000Y-93750000D01*
X88800000Y-94700000D02*
X89750000Y-93750000D01*
D29*
X82975000Y-106100000D02*
X82975000Y-102000000D01*
X77200000Y-112125000D02*
X82975000Y-106100000D01*
X88800000Y-99700000D02*
X88800000Y-102905000D01*
X88800000Y-102905000D02*
X88925000Y-103030000D01*
X88800000Y-102905000D02*
X88925000Y-103030000D01*
X58250000Y-123500000D02*
X58250000Y-127500000D01*
X58250000Y-127500000D02*
X58250000Y-129750000D01*
X58250000Y-129750000D02*
X58750000Y-130250000D01*
X51500000Y-126500000D02*
X48370000Y-126500000D01*
X48370000Y-126500000D02*
X48000000Y-126870000D01*
X69750000Y-119670000D02*
X62080000Y-119670000D01*
X62080000Y-119670000D02*
X58250000Y-123500000D01*
X70950000Y-98525000D02*
X70950000Y-98200000D01*
X70950000Y-98525000D02*
X70950000Y-115850000D01*
X69050000Y-117750000D02*
X70950000Y-115850000D01*
X67695000Y-94945000D02*
X67695000Y-88550000D01*
X70950000Y-98200000D02*
X67695000Y-94945000D01*
X97000000Y-118000000D02*
X95000000Y-116000000D01*
X97000000Y-123000000D02*
X97000000Y-118000000D01*
X96750000Y-123250000D02*
X97000000Y-123000000D01*
X52250000Y-117750000D02*
X52250000Y-118000000D01*
X69050000Y-117750000D02*
X52250000Y-117750000D01*
X40380000Y-120880000D02*
X40380000Y-119250000D01*
X41500000Y-122000000D02*
X40380000Y-120880000D01*
X48250000Y-122000000D02*
X41500000Y-122000000D01*
X52250000Y-118000000D02*
X48250000Y-122000000D01*
X40380000Y-119250000D02*
X37500000Y-119250000D01*
X100750000Y-108750000D02*
X98445000Y-108750000D01*
X98445000Y-108750000D02*
X96545000Y-110650000D01*
D30*
X120750000Y-87750000D02*
X120750000Y-87000000D01*
X116750000Y-82750000D02*
X116750000Y-80500000D01*
X120750000Y-87000000D02*
X116750000Y-82750000D01*
X100750000Y-108750000D02*
X100750000Y-108500000D01*
X100750000Y-108500000D02*
X103250000Y-106000000D01*
X103250000Y-106000000D02*
X103250000Y-102250000D01*
X103250000Y-102250000D02*
X103750000Y-101750000D01*
X103750000Y-101750000D02*
X111750000Y-101750000D01*
X111750000Y-101750000D02*
X114500000Y-99000000D01*
X114500000Y-99000000D02*
X117750000Y-99000000D01*
X117750000Y-99000000D02*
X120750000Y-95750000D01*
X120750000Y-95750000D02*
X120750000Y-87750000D01*
X120750000Y-87750000D02*
X120750000Y-87500000D01*
D29*
X104425000Y-130825000D02*
X103425000Y-130825000D01*
X103425000Y-130825000D02*
X102350000Y-131900000D01*
X102350000Y-131900000D02*
X92200000Y-131900000D01*
X92200000Y-131900000D02*
X91100000Y-130800000D01*
X91100000Y-130800000D02*
X91100000Y-128800000D01*
X96820000Y-110925000D02*
X96545000Y-110650000D01*
X120820000Y-74950000D02*
X120820000Y-78520000D01*
X120820000Y-78520000D02*
X120900000Y-78600000D01*
X67695000Y-88550000D02*
X67695000Y-88855000D01*
X67695000Y-88550000D02*
X70675000Y-88550000D01*
X70675000Y-88550000D02*
X70975000Y-88850000D01*
X83000000Y-119920000D02*
X75670000Y-119920000D01*
X73500000Y-117750000D02*
X69050000Y-117750000D01*
X75670000Y-119920000D02*
X73500000Y-117750000D01*
X83000000Y-119920000D02*
X82670000Y-119920000D01*
X91100000Y-128800000D02*
X90600000Y-128800000D01*
X90600000Y-128800000D02*
X90650000Y-128850000D01*
X83000000Y-119920000D02*
X86920000Y-119920000D01*
X86920000Y-119920000D02*
X91100000Y-128800000D01*
D32*
X116430000Y-155880000D02*
X115370000Y-155880000D01*
X115370000Y-155880000D02*
X110420000Y-160830000D01*
X71390000Y-155630000D02*
X72280000Y-159890000D01*
X73220000Y-160830000D02*
X110420000Y-160830000D01*
X72280000Y-159890000D02*
X73220000Y-160830000D01*
X71390000Y-155630000D02*
X65920000Y-155660000D01*
X65920000Y-155660000D02*
X65740000Y-155840000D01*
D31*
X40000000Y-80250000D02*
X43050000Y-80250000D01*
X43050000Y-80250000D02*
X44850000Y-82050000D01*
X44850000Y-82050000D02*
X44850000Y-91700000D01*
X49000000Y-91750000D02*
X44850000Y-91700000D01*
X44850000Y-91700000D02*
X38950000Y-91700000D01*
X38950000Y-91700000D02*
X38850000Y-91600000D01*
D29*
X60075000Y-88550000D02*
X60075000Y-92295000D01*
X60075000Y-92295000D02*
X56500000Y-96120000D01*
X62615000Y-88550000D02*
X60075000Y-88550000D01*
X42000000Y-106250000D02*
X42000000Y-103620000D01*
X54710000Y-90290000D02*
X56500000Y-88500000D01*
X54710000Y-91810000D02*
X54710000Y-90290000D01*
X49510000Y-97010000D02*
X54710000Y-91810000D01*
X48220000Y-97010000D02*
X49510000Y-97010000D01*
X44700000Y-100530000D02*
X48220000Y-97010000D01*
X44700000Y-100920000D02*
X44700000Y-100530000D01*
X42000000Y-103620000D02*
X44700000Y-100920000D01*
X56500000Y-87750000D02*
X59250000Y-85750000D01*
X65155000Y-84595000D02*
X65155000Y-80930000D01*
X64000000Y-85750000D02*
X65155000Y-84595000D01*
X59250000Y-85750000D02*
X64000000Y-85750000D01*
X56500000Y-88500000D02*
X56500000Y-87750000D01*
X64120000Y-75500000D02*
X64120000Y-75330000D01*
X45460000Y-126870000D02*
X42920000Y-126870000D01*
X54250000Y-72000000D02*
X51200000Y-75000000D01*
X51200000Y-75000000D02*
X50750000Y-75450000D01*
X114180000Y-108100000D02*
X111350000Y-108100000D01*
X111350000Y-108100000D02*
X111300000Y-108150000D01*
X111300000Y-108150000D02*
X111300000Y-111950000D01*
X111300000Y-111950000D02*
X112450000Y-113100000D01*
X102450000Y-113100000D02*
X103600000Y-113100000D01*
X105200000Y-114700000D02*
X105200000Y-118150000D01*
X103600000Y-113100000D02*
X105200000Y-114700000D01*
X118000000Y-117830000D02*
X118000000Y-118600000D01*
X118000000Y-118600000D02*
X116200000Y-121200000D01*
X116200000Y-121200000D02*
X107100000Y-121200000D01*
X107100000Y-121200000D02*
X105200000Y-119300000D01*
X105200000Y-119300000D02*
X105200000Y-118150000D01*
X114130000Y-104450000D02*
X111150000Y-104450000D01*
X111150000Y-104450000D02*
X111100000Y-104500000D01*
X114130000Y-104450000D02*
X115150000Y-104450000D01*
X118800000Y-108100000D02*
X121800000Y-108100000D01*
X115150000Y-104450000D02*
X118800000Y-108100000D01*
X121870000Y-108030000D02*
X121800000Y-108100000D01*
X118280000Y-74950000D02*
X118250000Y-81750000D01*
X123250000Y-99600000D02*
X121950000Y-100900000D01*
X123250000Y-86000000D02*
X123250000Y-99600000D01*
X121500000Y-84250000D02*
X123250000Y-86000000D01*
X120000000Y-84250000D02*
X121500000Y-84250000D01*
X118250000Y-81750000D02*
X120000000Y-84250000D01*
X121950000Y-100900000D02*
X121950000Y-104250000D01*
X121950000Y-104250000D02*
X121750000Y-104450000D01*
X113320000Y-60990000D02*
X105310000Y-60990000D01*
X105310000Y-60990000D02*
X104300000Y-62000000D01*
X104380000Y-61920000D02*
X104300000Y-62000000D01*
X102800000Y-58100000D02*
X102800000Y-56700000D01*
X103500000Y-56000000D02*
X111750000Y-56000000D01*
X102800000Y-56700000D02*
X103500000Y-56000000D01*
X111750000Y-56000000D02*
X111750000Y-56500000D01*
X104300000Y-62000000D02*
X104300000Y-65300000D01*
X102800000Y-58100000D02*
X102600000Y-58850000D01*
X102600000Y-58850000D02*
X104300000Y-62000000D01*
D30*
X101100000Y-54500000D02*
X101100000Y-53020000D01*
X100150000Y-55450000D02*
X101100000Y-54500000D01*
X86750000Y-55450000D02*
X100150000Y-55450000D01*
X85000000Y-54300000D02*
X86750000Y-55450000D01*
X80300000Y-54230000D02*
X75020000Y-54230000D01*
X75020000Y-54230000D02*
X74500000Y-54750000D01*
D29*
X96680000Y-65300000D02*
X98250000Y-65750000D01*
X98250000Y-65750000D02*
X101600000Y-68600000D01*
D31*
X91500000Y-63650000D02*
X91500000Y-65000000D01*
X95100000Y-68600000D02*
X96600000Y-68600000D01*
X91500000Y-65000000D02*
X95100000Y-68600000D01*
X99200000Y-71750000D02*
X99200000Y-70200000D01*
X99200000Y-70200000D02*
X96600000Y-68600000D01*
X99200000Y-79000000D02*
X99200000Y-71750000D01*
D29*
X96680000Y-62000000D02*
X95000000Y-60750000D01*
X95000000Y-60750000D02*
X92600000Y-59000000D01*
X92600000Y-59000000D02*
X92600000Y-58100000D01*
X106600000Y-79000000D02*
X106600000Y-85200000D01*
X110880000Y-89480000D02*
X113600000Y-89480000D01*
X106600000Y-85200000D02*
X110880000Y-89480000D01*
D31*
X91500000Y-63650000D02*
X91500000Y-64050000D01*
X106600000Y-79000000D02*
X103450000Y-79000000D01*
X103450000Y-79000000D02*
X99200000Y-79000000D01*
X99200000Y-79000000D02*
X98600000Y-79000000D01*
X98600000Y-79000000D02*
X96950000Y-80650000D01*
X92600000Y-58100000D02*
X92400000Y-62750000D01*
X92400000Y-62750000D02*
X91500000Y-63650000D01*
D30*
X110750000Y-96750000D02*
X113250000Y-96750000D01*
X113250000Y-96750000D02*
X113600000Y-97100000D01*
X107250000Y-98250000D02*
X107250000Y-98750000D01*
X108250000Y-99750000D02*
X110870000Y-99750000D01*
X107250000Y-98750000D02*
X108250000Y-99750000D01*
X100750000Y-98250000D02*
X107250000Y-98250000D01*
X108750000Y-96750000D02*
X110750000Y-96750000D01*
X107250000Y-98250000D02*
X108750000Y-96750000D01*
X99125000Y-102250000D02*
X99125000Y-101625000D01*
X100750000Y-100000000D02*
X100750000Y-98250000D01*
X100750000Y-98250000D02*
X100750000Y-96750000D01*
X99125000Y-101625000D02*
X100750000Y-100000000D01*
X113600000Y-97100000D02*
X112900000Y-97100000D01*
X110750000Y-99630000D02*
X110870000Y-99750000D01*
X99125000Y-102250000D02*
X99125000Y-105050000D01*
X99125000Y-105050000D02*
X96625000Y-107550000D01*
X96625000Y-107550000D02*
X92900000Y-107550000D01*
X92900000Y-107550000D02*
X91465000Y-108985000D01*
X91465000Y-108985000D02*
X91465000Y-110650000D01*
D29*
X110900000Y-99720000D02*
X110870000Y-99750000D01*
X110900000Y-99720000D02*
X110870000Y-99750000D01*
D30*
X90750000Y-96750000D02*
X93750000Y-96750000D01*
X88925000Y-108575000D02*
X88925000Y-110650000D01*
X92000000Y-105500000D02*
X88925000Y-108575000D01*
X97000000Y-105500000D02*
X92000000Y-105500000D01*
X98000000Y-104500000D02*
X97000000Y-105500000D01*
X98000000Y-101000000D02*
X98000000Y-104500000D01*
X93750000Y-96750000D02*
X98000000Y-101000000D01*
X90750000Y-96750000D02*
X90750000Y-96250000D01*
X90750000Y-96250000D02*
X93000000Y-95000000D01*
X114530000Y-95000000D02*
X117050000Y-97020000D01*
X93000000Y-95000000D02*
X114530000Y-95000000D01*
X90750000Y-96750000D02*
X90100000Y-96750000D01*
D29*
X117050000Y-97020000D02*
X117050000Y-97550000D01*
D31*
X95450000Y-73150000D02*
X94700000Y-73150000D01*
X94700000Y-73150000D02*
X91500000Y-76350000D01*
X85750000Y-85750000D02*
X92050000Y-85750000D01*
X92050000Y-85750000D02*
X96950000Y-90650000D01*
X96950000Y-90650000D02*
X105550000Y-90650000D01*
X105550000Y-90650000D02*
X106600000Y-91700000D01*
D29*
X117050000Y-89400000D02*
X117050000Y-88100000D01*
X115810000Y-69800000D02*
X118280000Y-67330000D01*
X112550000Y-69800000D02*
X115810000Y-69800000D01*
X109610000Y-72740000D02*
X112550000Y-69800000D01*
X109610000Y-83890000D02*
X109610000Y-72740000D01*
X112250000Y-86530000D02*
X109610000Y-83890000D01*
X115480000Y-86530000D02*
X112250000Y-86530000D01*
X117050000Y-88100000D02*
X115480000Y-86530000D01*
X118280000Y-67330000D02*
X118280000Y-68180000D01*
X123100000Y-80850000D02*
X121550000Y-82400000D01*
X123100000Y-73000000D02*
X123100000Y-80850000D01*
X118280000Y-68180000D02*
X123100000Y-73000000D01*
X121550000Y-82400000D02*
X120850000Y-82400000D01*
X121140000Y-64120000D02*
X120420000Y-64120000D01*
X120420000Y-64120000D02*
X118280000Y-64970000D01*
X118280000Y-64970000D02*
X118280000Y-67330000D01*
X115740000Y-74950000D02*
X113200000Y-74950000D01*
X113200000Y-74950000D02*
X113200000Y-82370000D01*
X113200000Y-82370000D02*
X113230000Y-82400000D01*
X113520000Y-64120000D02*
X114780000Y-64120000D01*
X117910000Y-60990000D02*
X120940000Y-60990000D01*
X114780000Y-64120000D02*
X117910000Y-60990000D01*
X115740000Y-67330000D02*
X115470000Y-67330000D01*
X113520000Y-64120000D02*
X113970000Y-64120000D01*
X113970000Y-64120000D02*
X115740000Y-66140000D01*
X115740000Y-66140000D02*
X115740000Y-67330000D01*
X91465000Y-103030000D02*
X94005000Y-103030000D01*
X93560000Y-102650000D02*
X93560000Y-103060000D01*
X111750000Y-51000000D02*
X113250000Y-51000000D01*
X121670000Y-67330000D02*
X120820000Y-67330000D01*
X123250000Y-65750000D02*
X121670000Y-67330000D01*
X123250000Y-61000000D02*
X123250000Y-65750000D01*
X113250000Y-51000000D02*
X123250000Y-61000000D01*
X111750000Y-51000000D02*
X111750000Y-51500000D01*
X111750000Y-51500000D02*
X110230000Y-53020000D01*
X110230000Y-53020000D02*
X104500000Y-53020000D01*
X120920000Y-67330000D02*
X120820000Y-67330000D01*
X111730000Y-51020000D02*
X111750000Y-51000000D01*
X118000000Y-112750000D02*
X117420000Y-112750000D01*
X117420000Y-112750000D02*
X112820000Y-118150000D01*
X118000000Y-112750000D02*
X120950000Y-112700000D01*
X122500000Y-114250000D02*
X122500000Y-122500000D01*
X120950000Y-112700000D02*
X122500000Y-114250000D01*
X122500000Y-122500000D02*
X122000000Y-123000000D01*
X106100000Y-104500000D02*
X106100000Y-105730000D01*
X106100000Y-105730000D02*
X103680000Y-108150000D01*
X112820000Y-118150000D02*
X111350000Y-118150000D01*
X104600000Y-108150000D02*
X103680000Y-108150000D01*
X107600000Y-111150000D02*
X104600000Y-108150000D01*
X107600000Y-114400000D02*
X107600000Y-111150000D01*
X111350000Y-118150000D02*
X107600000Y-114400000D01*
X118000000Y-112750000D02*
X118000000Y-113050000D01*
X112820000Y-118150000D02*
X112200000Y-118150000D01*
X56500000Y-75500000D02*
X59250000Y-75500000D01*
X62615000Y-78865000D02*
X62615000Y-80930000D01*
X59250000Y-75500000D02*
X62615000Y-78865000D01*
X67300000Y-77470000D02*
X67180000Y-77470000D01*
X67180000Y-77470000D02*
X65300000Y-79350000D01*
X62615000Y-79350000D02*
X62615000Y-80930000D01*
X65300000Y-79350000D02*
X62615000Y-79350000D01*
M02*
