M48
;DRILL file {KiCad 4.0.7} date 10/28/20 13:25:38
;FORMAT={-:-/ absolute / metric / decimal}
FMAT,2
METRIC,TZ
T1C0.400
T2C0.800
T3C1.000
T4C1.100
T5C1.200
T6C1.520
T7C1.600
%
G90
G05
M71
T1
X40.5Y-51.
X44.5Y-52.25
X64.75Y-83.5
X72.4Y-83.5
X72.8Y-115.625
X77.2Y-112.125
X82.75Y-51.25
X82.975Y-102.
X87.Y-53.25
X95.5Y-116.4
X96.05Y-122.325
X115.Y-70.
X116.75Y-80.5
T2
X29.75Y-57.25
X29.75Y-59.75
X32.575Y-123.25
X32.575Y-130.87
X33.75Y-110.5
X33.75Y-120.5
X35.25Y-123.13
X35.25Y-130.75
X36.25Y-51.88
X36.25Y-59.5
X38.25Y-106.38
X38.25Y-114.
X38.5Y-130.25
X39.13Y-119.
X39.13Y-126.62
X39.5Y-61.
X41.475Y-106.3
X41.475Y-113.92
X41.67Y-119.
X41.67Y-126.62
X42.25Y-53.
X42.25Y-58.
X43.5Y-130.25
X44.21Y-119.
X44.21Y-126.62
X44.5Y-61.
X45.275Y-111.175
X46.75Y-119.
X46.75Y-126.62
X47.175Y-106.825
X47.205Y-102.5
X50.5Y-121.25
X50.5Y-126.25
X54.25Y-72.
X54.795Y-106.825
X54.825Y-102.5
X55.275Y-111.175
X55.75Y-62.25
X55.75Y-67.25
X55.75Y-123.5
X56.575Y-77.
X57.075Y-82.675
X57.075Y-87.675
X57.375Y-100.725
X57.55Y-104.575
X58.Y-107.88
X58.Y-115.5
X58.25Y-123.5
X59.5Y-61.5
X59.5Y-69.12
X60.075Y-80.93
X60.075Y-88.55
X60.18Y-92.6
X61.25Y-107.88
X61.25Y-115.5
X62.375Y-100.725
X62.55Y-104.575
X62.615Y-80.93
X62.615Y-88.55
X63.25Y-61.5
X63.25Y-69.12
X64.195Y-77.
X64.25Y-72.
X65.155Y-80.93
X65.155Y-88.55
X66.5Y-61.5
X66.5Y-66.5
X67.075Y-100.225
X67.3Y-69.85
X67.3Y-77.47
X67.695Y-80.93
X67.695Y-88.55
X67.8Y-92.6
X70.975Y-88.85
X70.975Y-93.85
X74.Y-140.25
X74.Y-145.25
X74.5Y-54.75
X74.5Y-57.25
X74.695Y-100.225
X77.75Y-140.25
X77.75Y-145.25
X80.5Y-51.38
X80.5Y-59.
X82.45Y-63.15
X84.Y-53.75
X84.Y-58.75
X87.45Y-63.15
X88.8Y-99.7
X88.925Y-103.03
X88.925Y-110.65
X90.75Y-96.75
X91.1Y-128.8
X91.465Y-103.03
X91.465Y-110.65
X93.6Y-128.8
X93.8Y-99.7
X94.005Y-103.03
X94.005Y-110.65
X95.45Y-73.15
X96.545Y-103.03
X96.545Y-110.65
X98.05Y-60.55
X98.05Y-65.55
X100.75Y-96.75
X100.75Y-103.75
X100.75Y-108.75
X101.55Y-60.45
X101.55Y-68.07
X102.45Y-113.1
X103.13Y-96.75
X103.25Y-99.75
X103.68Y-108.15
X105.05Y-60.45
X105.05Y-68.07
X105.2Y-118.15
X105.45Y-73.15
X106.1Y-104.5
X108.3Y-60.4
X108.3Y-65.4
X109.4Y-67.75
X109.4Y-75.37
X110.75Y-96.75
X110.87Y-99.75
X111.1Y-104.5
X111.3Y-108.15
X112.45Y-113.1
X112.6Y-60.05
X112.75Y-63.6
X112.82Y-118.15
X113.2Y-67.33
X113.2Y-74.95
X113.23Y-82.4
X113.6Y-89.48
X113.6Y-97.1
X114.13Y-104.45
X114.18Y-108.1
X115.74Y-67.33
X115.74Y-74.95
X115.9Y-78.6
X116.95Y-100.9
X117.05Y-89.4
X117.05Y-97.02
X117.6Y-60.05
X118.28Y-67.33
X118.28Y-74.95
X120.37Y-63.6
X120.82Y-67.33
X120.82Y-74.95
X120.85Y-82.4
X120.9Y-78.6
X121.75Y-104.45
X121.8Y-108.1
X121.95Y-100.9
X122.Y-123.
X122.Y-130.62
T3
X30.75Y-66.25
X30.75Y-69.75
X40.5Y-68.5
X44.Y-68.5
X48.25Y-57.
X49.95Y-51.92
X51.65Y-57.
X53.35Y-51.92
X55.05Y-57.
X56.75Y-51.92
X58.45Y-57.
X60.15Y-51.92
X61.85Y-57.
X63.55Y-51.92
X65.25Y-57.
X69.75Y-119.67
X69.75Y-122.21
X69.75Y-124.75
X75.75Y-64.
X75.75Y-67.5
X82.15Y-74.
X83.Y-119.92
X83.Y-122.46
X83.Y-125.
X85.65Y-74.
X89.Y-57.25
X90.7Y-52.17
X92.4Y-57.25
X94.1Y-52.17
X95.8Y-57.25
X97.5Y-52.17
X99.2Y-57.25
X100.9Y-52.17
X102.6Y-57.25
X104.3Y-52.17
X106.Y-57.25
T4
X70.25Y-137.25
X70.25Y-144.87
X81.25Y-137.38
X81.25Y-145.
T5
X30.5Y-142.
X38.Y-142.
X38.85Y-91.6
X38.85Y-101.6
X46.05Y-130.25
X50.Y-142.
X50.75Y-62.75
X50.75Y-75.45
X52.8Y-79.
X52.8Y-91.7
X57.5Y-142.
X58.75Y-130.25
X65.75Y-132.3
X65.75Y-145.
X85.Y-132.5
X85.Y-145.2
X91.5Y-63.65
X91.5Y-76.35
X93.Y-142.
X96.95Y-80.65
X96.95Y-90.65
X100.5Y-142.
X104.425Y-130.825
X106.6Y-79.
X106.6Y-91.7
X111.5Y-142.
X117.125Y-130.825
X119.Y-142.
T6
X40.Y-80.25
X40.Y-85.33
X67.9Y-104.875
X67.9Y-109.955
X71.39Y-155.63
X76.47Y-155.63
X81.55Y-155.63
X85.75Y-85.75
X85.75Y-90.83
X118.Y-112.75
X118.Y-117.83
T7
X35.15Y-155.77
X47.85Y-155.77
X53.04Y-155.84
X65.74Y-155.84
X87.03Y-156.07
X99.73Y-156.07
X103.73Y-155.88
X116.43Y-155.88
T0
M30
