G04 #@! TF.FileFunction,Soldermask,Bot*
%FSLAX46Y46*%
G04 Gerber Fmt 4.6, Leading zero omitted, Abs format (unit mm)*
G04 Created by KiCad (PCBNEW 4.0.7) date 10/28/20 13:25:35*
%MOMM*%
%LPD*%
G01*
G04 APERTURE LIST*
%ADD10C,0.100000*%
%ADD11R,2.800000X2.800000*%
%ADD12C,2.800000*%
%ADD13C,2.000000*%
%ADD14O,2.800000X2.800000*%
%ADD15R,2.000000X2.000000*%
%ADD16O,2.000000X2.000000*%
%ADD17R,2.400000X2.400000*%
%ADD18C,2.400000*%
%ADD19R,3.600000X3.600000*%
%ADD20O,3.600000X3.600000*%
%ADD21R,2.600000X2.600000*%
%ADD22O,2.600000X2.600000*%
%ADD23R,3.400000X3.400000*%
%ADD24C,3.400000*%
%ADD25R,2.200000X2.200000*%
%ADD26O,2.200000X2.200000*%
G04 APERTURE END LIST*
D10*
D11*
X93000000Y-142000000D03*
D12*
X100500000Y-142000000D03*
D13*
X55750000Y-67250000D03*
X55750000Y-62250000D03*
D12*
X65750000Y-145000000D03*
D14*
X65750000Y-132300000D03*
D11*
X38000000Y-142000000D03*
D12*
X30500000Y-142000000D03*
D13*
X45275000Y-111175000D03*
X55275000Y-111175000D03*
X62550000Y-104575000D03*
X57550000Y-104575000D03*
X62375000Y-100725000D03*
X57375000Y-100725000D03*
X66500000Y-66500000D03*
X66500000Y-61500000D03*
D15*
X29750000Y-59750000D03*
D13*
X29750000Y-57250000D03*
X64250000Y-72000000D03*
D16*
X54250000Y-72000000D03*
D11*
X50000000Y-142000000D03*
D12*
X57500000Y-142000000D03*
D13*
X33750000Y-120500000D03*
D16*
X33750000Y-110500000D03*
D13*
X44500000Y-61000000D03*
X39500000Y-61000000D03*
X42250000Y-53000000D03*
X42250000Y-58000000D03*
X74000000Y-140250000D03*
X74000000Y-145250000D03*
X77750000Y-145250000D03*
X77750000Y-140250000D03*
D15*
X58250000Y-123500000D03*
D13*
X55750000Y-123500000D03*
D15*
X93600000Y-128800000D03*
D13*
X91100000Y-128800000D03*
X57075000Y-82675000D03*
X57075000Y-87675000D03*
X70975000Y-88850000D03*
X70975000Y-93850000D03*
D17*
X44000000Y-68500000D03*
D18*
X40500000Y-68500000D03*
D17*
X30750000Y-69750000D03*
D18*
X30750000Y-66250000D03*
D13*
X50500000Y-126250000D03*
X50500000Y-121250000D03*
X38500000Y-130250000D03*
X43500000Y-130250000D03*
D19*
X47850000Y-155770000D03*
D20*
X35150000Y-155770000D03*
D19*
X87030000Y-156070000D03*
D20*
X99730000Y-156070000D03*
D15*
X35250000Y-130750000D03*
D16*
X35250000Y-123130000D03*
D15*
X32575000Y-123250000D03*
D16*
X32575000Y-130870000D03*
D19*
X53040000Y-155840000D03*
D20*
X65740000Y-155840000D03*
D19*
X116430000Y-155880000D03*
D20*
X103730000Y-155880000D03*
D21*
X70250000Y-137250000D03*
D22*
X70250000Y-144870000D03*
D21*
X81250000Y-145000000D03*
D22*
X81250000Y-137380000D03*
D23*
X67900000Y-104875000D03*
D24*
X67900000Y-109955000D03*
D23*
X40000000Y-80250000D03*
D24*
X40000000Y-85330000D03*
D25*
X69750000Y-124750000D03*
D26*
X69750000Y-122210000D03*
X69750000Y-119670000D03*
D13*
X67075000Y-100225000D03*
D16*
X74695000Y-100225000D03*
D13*
X61250000Y-115500000D03*
D16*
X61250000Y-107880000D03*
D13*
X58000000Y-115500000D03*
D16*
X58000000Y-107880000D03*
D13*
X47175000Y-106825000D03*
D16*
X54795000Y-106825000D03*
D13*
X54825000Y-102500000D03*
D16*
X47205000Y-102500000D03*
D13*
X67800000Y-92600000D03*
D16*
X60180000Y-92600000D03*
D13*
X56575000Y-77000000D03*
D16*
X64195000Y-77000000D03*
D13*
X67300000Y-69850000D03*
D16*
X67300000Y-77470000D03*
D13*
X36250000Y-59500000D03*
D16*
X36250000Y-51880000D03*
D13*
X59500000Y-61500000D03*
D16*
X59500000Y-69120000D03*
D13*
X63250000Y-61500000D03*
D16*
X63250000Y-69120000D03*
D12*
X50750000Y-62750000D03*
D14*
X50750000Y-75450000D03*
D12*
X52800000Y-91700000D03*
D14*
X52800000Y-79000000D03*
D12*
X85000000Y-132500000D03*
D14*
X85000000Y-145200000D03*
D12*
X58750000Y-130250000D03*
D14*
X46050000Y-130250000D03*
D12*
X117125000Y-130825000D03*
D14*
X104425000Y-130825000D03*
D15*
X60075000Y-88550000D03*
D16*
X67695000Y-80930000D03*
X62615000Y-88550000D03*
X65155000Y-80930000D03*
X65155000Y-88550000D03*
X62615000Y-80930000D03*
X67695000Y-88550000D03*
X60075000Y-80930000D03*
D25*
X48250000Y-57000000D03*
D26*
X49950000Y-51920000D03*
X51650000Y-57000000D03*
X53350000Y-51920000D03*
X55050000Y-57000000D03*
X56750000Y-51920000D03*
X58450000Y-57000000D03*
X60150000Y-51920000D03*
X61850000Y-57000000D03*
X63550000Y-51920000D03*
X65250000Y-57000000D03*
D15*
X46750000Y-119000000D03*
D16*
X39130000Y-126620000D03*
X44210000Y-119000000D03*
X41670000Y-126620000D03*
X41670000Y-119000000D03*
X44210000Y-126620000D03*
X39130000Y-119000000D03*
X46750000Y-126620000D03*
D23*
X71390000Y-155630000D03*
D24*
X76470000Y-155630000D03*
X81550000Y-155630000D03*
D11*
X119000000Y-142000000D03*
D12*
X111500000Y-142000000D03*
D25*
X83000000Y-125000000D03*
D26*
X83000000Y-122460000D03*
X83000000Y-119920000D03*
D12*
X38850000Y-101600000D03*
X38850000Y-91600000D03*
D13*
X38250000Y-114000000D03*
D16*
X38250000Y-106380000D03*
D13*
X41475000Y-106300000D03*
D16*
X41475000Y-113920000D03*
D13*
X112450000Y-113100000D03*
X102450000Y-113100000D03*
X106100000Y-104500000D03*
X111100000Y-104500000D03*
X116950000Y-100900000D03*
X121950000Y-100900000D03*
X112600000Y-60050000D03*
X117600000Y-60050000D03*
X120900000Y-78600000D03*
X115900000Y-78600000D03*
X108300000Y-65400000D03*
X108300000Y-60400000D03*
D17*
X85650000Y-74000000D03*
D18*
X82150000Y-74000000D03*
D13*
X84000000Y-53750000D03*
X84000000Y-58750000D03*
X87450000Y-63150000D03*
X82450000Y-63150000D03*
D17*
X75750000Y-67500000D03*
D18*
X75750000Y-64000000D03*
D15*
X74500000Y-57250000D03*
D13*
X74500000Y-54750000D03*
X98050000Y-65550000D03*
X98050000Y-60550000D03*
X100750000Y-96750000D03*
D16*
X90750000Y-96750000D03*
D13*
X105450000Y-73150000D03*
D16*
X95450000Y-73150000D03*
D13*
X88800000Y-99700000D03*
X93800000Y-99700000D03*
X100750000Y-108750000D03*
X100750000Y-103750000D03*
D15*
X103250000Y-99750000D03*
D16*
X110870000Y-99750000D03*
D15*
X110750000Y-96750000D03*
D16*
X103130000Y-96750000D03*
D23*
X118000000Y-112750000D03*
D24*
X118000000Y-117830000D03*
D23*
X85750000Y-85750000D03*
D24*
X85750000Y-90830000D03*
D12*
X96950000Y-80650000D03*
X96950000Y-90650000D03*
D13*
X105200000Y-118150000D03*
D16*
X112820000Y-118150000D03*
D13*
X111300000Y-108150000D03*
D16*
X103680000Y-108150000D03*
D13*
X121800000Y-108100000D03*
D16*
X114180000Y-108100000D03*
D13*
X121750000Y-104450000D03*
D16*
X114130000Y-104450000D03*
D13*
X120850000Y-82400000D03*
D16*
X113230000Y-82400000D03*
D13*
X112750000Y-63600000D03*
D16*
X120370000Y-63600000D03*
D13*
X109400000Y-67750000D03*
D16*
X109400000Y-75370000D03*
D13*
X80500000Y-59000000D03*
D16*
X80500000Y-51380000D03*
D13*
X101550000Y-60450000D03*
D16*
X101550000Y-68070000D03*
D13*
X105050000Y-60450000D03*
D16*
X105050000Y-68070000D03*
D13*
X113600000Y-97100000D03*
D16*
X113600000Y-89480000D03*
D13*
X117050000Y-89400000D03*
D16*
X117050000Y-97020000D03*
D12*
X91500000Y-63650000D03*
D14*
X91500000Y-76350000D03*
D12*
X106600000Y-91700000D03*
D14*
X106600000Y-79000000D03*
D15*
X113200000Y-74950000D03*
D16*
X120820000Y-67330000D03*
X115740000Y-74950000D03*
X118280000Y-67330000D03*
X118280000Y-74950000D03*
X115740000Y-67330000D03*
X120820000Y-74950000D03*
X113200000Y-67330000D03*
D25*
X89000000Y-57250000D03*
D26*
X90700000Y-52170000D03*
X92400000Y-57250000D03*
X94100000Y-52170000D03*
X95800000Y-57250000D03*
X97500000Y-52170000D03*
X99200000Y-57250000D03*
X100900000Y-52170000D03*
X102600000Y-57250000D03*
X104300000Y-52170000D03*
X106000000Y-57250000D03*
D15*
X88925000Y-110650000D03*
D16*
X96545000Y-103030000D03*
X91465000Y-110650000D03*
X94005000Y-103030000D03*
X94005000Y-110650000D03*
X91465000Y-103030000D03*
X96545000Y-110650000D03*
X88925000Y-103030000D03*
D13*
X122000000Y-123000000D03*
D16*
X122000000Y-130620000D03*
M02*
