G04 #@! TF.FileFunction,Soldermask,Bot*
%FSLAX46Y46*%
G04 Gerber Fmt 4.6, Leading zero omitted, Abs format (unit mm)*
G04 Created by KiCad (PCBNEW 4.0.7) date 11/12/20 01:48:35*
%MOMM*%
%LPD*%
G01*
G04 APERTURE LIST*
%ADD10C,0.100000*%
%ADD11R,2.000000X2.000000*%
%ADD12O,2.000000X2.000000*%
%ADD13R,2.800000X2.800000*%
%ADD14C,2.800000*%
%ADD15R,2.200000X2.200000*%
%ADD16O,2.200000X2.200000*%
%ADD17C,2.000000*%
%ADD18O,2.800000X2.800000*%
%ADD19R,2.400000X2.400000*%
%ADD20C,2.400000*%
%ADD21R,3.600000X3.600000*%
%ADD22O,3.600000X3.600000*%
%ADD23R,2.600000X2.600000*%
%ADD24O,2.600000X2.600000*%
%ADD25R,3.400000X3.400000*%
%ADD26C,3.400000*%
%ADD27C,5.400000*%
G04 APERTURE END LIST*
D10*
D11*
X103250000Y-99750000D03*
D12*
X110870000Y-99750000D03*
D13*
X93000000Y-142000000D03*
D14*
X100500000Y-142000000D03*
D15*
X48000000Y-58000000D03*
D16*
X49700000Y-52920000D03*
X51400000Y-58000000D03*
X53100000Y-52920000D03*
X54800000Y-58000000D03*
X56500000Y-52920000D03*
X58200000Y-58000000D03*
X59900000Y-52920000D03*
X61600000Y-58000000D03*
X63300000Y-52920000D03*
X65000000Y-58000000D03*
D17*
X59700000Y-68100000D03*
X54700000Y-68100000D03*
D14*
X73750000Y-145500000D03*
D18*
X73750000Y-132800000D03*
D13*
X38000000Y-142000000D03*
D14*
X30500000Y-142000000D03*
D17*
X45275000Y-111175000D03*
X55275000Y-111175000D03*
X62550000Y-104575000D03*
X57550000Y-104575000D03*
X62375000Y-100725000D03*
X57375000Y-100725000D03*
X66500000Y-66500000D03*
X66500000Y-61500000D03*
D11*
X29500000Y-60500000D03*
D17*
X29500000Y-58000000D03*
X64250000Y-72000000D03*
D12*
X54250000Y-72000000D03*
D13*
X50000000Y-142000000D03*
D14*
X57500000Y-142000000D03*
D17*
X34250000Y-115750000D03*
D12*
X34250000Y-105750000D03*
D17*
X45350000Y-61350000D03*
X40350000Y-61350000D03*
X42250000Y-53000000D03*
X42250000Y-58000000D03*
X66500000Y-140750000D03*
X66500000Y-145750000D03*
X77750000Y-145250000D03*
X77750000Y-140250000D03*
D11*
X58250000Y-123500000D03*
D17*
X55750000Y-123500000D03*
D11*
X93600000Y-128800000D03*
D17*
X91100000Y-128800000D03*
X56250000Y-85250000D03*
X56250000Y-80250000D03*
X70975000Y-88850000D03*
X70975000Y-93850000D03*
D19*
X44000000Y-68500000D03*
D20*
X40500000Y-68500000D03*
D19*
X31000000Y-70500000D03*
D20*
X31000000Y-67000000D03*
D17*
X51500000Y-126500000D03*
X51500000Y-121500000D03*
X37500000Y-119250000D03*
X32500000Y-119250000D03*
D21*
X47850000Y-155770000D03*
D22*
X35150000Y-155770000D03*
D21*
X87030000Y-156070000D03*
D22*
X99730000Y-156070000D03*
D11*
X35250000Y-130750000D03*
D12*
X35250000Y-123130000D03*
D11*
X32575000Y-123250000D03*
D12*
X32575000Y-130870000D03*
D21*
X53040000Y-155840000D03*
D22*
X65740000Y-155840000D03*
D21*
X116430000Y-155880000D03*
D22*
X103730000Y-155880000D03*
D23*
X70250000Y-138000000D03*
D24*
X70250000Y-145620000D03*
D23*
X81250000Y-145000000D03*
D24*
X81250000Y-137380000D03*
D25*
X67900000Y-104875000D03*
D26*
X67900000Y-109955000D03*
D25*
X40000000Y-80250000D03*
D26*
X40000000Y-85330000D03*
D15*
X69750000Y-124750000D03*
D16*
X69750000Y-122210000D03*
X69750000Y-119670000D03*
D17*
X75500000Y-99000000D03*
D12*
X67880000Y-99000000D03*
D17*
X61250000Y-115500000D03*
D12*
X61250000Y-107880000D03*
D17*
X58000000Y-115500000D03*
D12*
X58000000Y-107880000D03*
D17*
X47175000Y-106825000D03*
D12*
X54795000Y-106825000D03*
D17*
X54825000Y-102500000D03*
D12*
X47205000Y-102500000D03*
D17*
X56500000Y-88500000D03*
D12*
X56500000Y-96120000D03*
D17*
X56500000Y-75500000D03*
D12*
X64120000Y-75500000D03*
D17*
X67300000Y-69850000D03*
D12*
X67300000Y-77470000D03*
D17*
X36200000Y-61250000D03*
D12*
X36200000Y-53630000D03*
D17*
X62400000Y-61600000D03*
D12*
X54780000Y-61600000D03*
D17*
X62400000Y-64800000D03*
D12*
X54780000Y-64800000D03*
D14*
X50750000Y-62750000D03*
D18*
X50750000Y-75450000D03*
D14*
X49000000Y-91750000D03*
D18*
X49000000Y-79050000D03*
D14*
X85000000Y-132500000D03*
D18*
X85000000Y-145200000D03*
D14*
X58750000Y-130250000D03*
D18*
X46050000Y-130250000D03*
D14*
X117125000Y-130825000D03*
D18*
X104425000Y-130825000D03*
D11*
X60075000Y-88550000D03*
D12*
X67695000Y-80930000D03*
X62615000Y-88550000D03*
X65155000Y-80930000D03*
X65155000Y-88550000D03*
X62615000Y-80930000D03*
X67695000Y-88550000D03*
X60075000Y-80930000D03*
D11*
X48000000Y-119250000D03*
D12*
X40380000Y-126870000D03*
X45460000Y-119250000D03*
X42920000Y-126870000D03*
X42920000Y-119250000D03*
X45460000Y-126870000D03*
X40380000Y-119250000D03*
X48000000Y-126870000D03*
D25*
X71390000Y-155630000D03*
D26*
X76470000Y-155630000D03*
X81550000Y-155630000D03*
D13*
X119000000Y-142000000D03*
D14*
X111500000Y-142000000D03*
D15*
X83000000Y-125000000D03*
D16*
X83000000Y-122460000D03*
X83000000Y-119920000D03*
D14*
X38850000Y-101600000D03*
X38850000Y-91600000D03*
D17*
X38750000Y-114000000D03*
D12*
X38750000Y-106380000D03*
D17*
X42000000Y-106250000D03*
D12*
X42000000Y-113870000D03*
D17*
X112450000Y-113100000D03*
X102450000Y-113100000D03*
X106100000Y-104500000D03*
X111100000Y-104500000D03*
X116950000Y-100900000D03*
X121950000Y-100900000D03*
X109190000Y-68030000D03*
X109190000Y-63030000D03*
X120900000Y-78600000D03*
X115900000Y-78600000D03*
X111750000Y-56000000D03*
X111750000Y-51000000D03*
D19*
X85600000Y-75050000D03*
D20*
X82100000Y-75050000D03*
D17*
X83850000Y-56600000D03*
X83850000Y-61600000D03*
X87450000Y-63200000D03*
X87450000Y-68200000D03*
D19*
X75600000Y-68850000D03*
D20*
X75600000Y-65350000D03*
D11*
X74500000Y-57250000D03*
D17*
X74500000Y-54750000D03*
X101600000Y-68600000D03*
X96600000Y-68600000D03*
X100750000Y-96750000D03*
D12*
X90750000Y-96750000D03*
D17*
X105450000Y-73150000D03*
D12*
X95450000Y-73150000D03*
D17*
X88800000Y-99700000D03*
X93800000Y-99700000D03*
X100750000Y-108750000D03*
X100750000Y-103750000D03*
D11*
X110750000Y-96750000D03*
D12*
X103130000Y-96750000D03*
D25*
X118000000Y-112750000D03*
D26*
X118000000Y-117830000D03*
D25*
X85750000Y-85750000D03*
D26*
X85750000Y-90830000D03*
D14*
X96950000Y-80650000D03*
X96950000Y-90650000D03*
D17*
X105200000Y-118150000D03*
D12*
X112820000Y-118150000D03*
D17*
X111300000Y-108150000D03*
D12*
X103680000Y-108150000D03*
D17*
X121800000Y-108100000D03*
D12*
X114180000Y-108100000D03*
D17*
X121750000Y-104450000D03*
D12*
X114130000Y-104450000D03*
D17*
X120850000Y-82400000D03*
D12*
X113230000Y-82400000D03*
D17*
X113520000Y-64120000D03*
D12*
X121140000Y-64120000D03*
D17*
X113320000Y-60990000D03*
D12*
X120940000Y-60990000D03*
D17*
X80300000Y-61850000D03*
D12*
X80300000Y-54230000D03*
D17*
X104300000Y-65300000D03*
D12*
X96680000Y-65300000D03*
D17*
X104300000Y-62000000D03*
D12*
X96680000Y-62000000D03*
D17*
X113600000Y-97100000D03*
D12*
X113600000Y-89480000D03*
D17*
X117050000Y-89400000D03*
D12*
X117050000Y-97020000D03*
D14*
X91500000Y-63650000D03*
D18*
X91500000Y-76350000D03*
D14*
X106600000Y-91700000D03*
D18*
X106600000Y-79000000D03*
D11*
X113200000Y-74950000D03*
D12*
X120820000Y-67330000D03*
X115740000Y-74950000D03*
X118280000Y-67330000D03*
X118280000Y-74950000D03*
X115740000Y-67330000D03*
X120820000Y-74950000D03*
X113200000Y-67330000D03*
D15*
X89200000Y-58100000D03*
D16*
X90900000Y-53020000D03*
X92600000Y-58100000D03*
X94300000Y-53020000D03*
X96000000Y-58100000D03*
X97700000Y-53020000D03*
X99400000Y-58100000D03*
X101100000Y-53020000D03*
X102800000Y-58100000D03*
X104500000Y-53020000D03*
X106200000Y-58100000D03*
D11*
X88925000Y-110650000D03*
D12*
X96545000Y-103030000D03*
X91465000Y-110650000D03*
X94005000Y-103030000D03*
X94005000Y-110650000D03*
X91465000Y-103030000D03*
X96545000Y-110650000D03*
X88925000Y-103030000D03*
D17*
X122000000Y-123000000D03*
D12*
X122000000Y-130620000D03*
D27*
X121000000Y-160000000D03*
X28000000Y-160000000D03*
X28000000Y-52000000D03*
X121000000Y-52000000D03*
M02*
