M48
;DRILL file {KiCad 4.0.7} date 11/12/20 01:48:37
;FORMAT={-:-/ absolute / metric / decimal}
FMAT,2
METRIC,TZ
T1C0.400
T2C0.800
T3C1.000
T4C1.100
T5C1.200
T6C1.520
T7C1.600
%
G90
G05
M71
T1
X38.9Y-53.65
X41.4Y-56.4
X67.Y-83.25
X72.25Y-113.5
X77.2Y-112.125
X82.975Y-102.
X85.Y-54.3
X95.Y-116.
X96.75Y-123.25
X114.81Y-70.92
X116.75Y-80.5
T2
X29.5Y-58.
X29.5Y-60.5
X32.5Y-119.25
X32.575Y-123.25
X32.575Y-130.87
X34.25Y-105.75
X34.25Y-115.75
X35.25Y-123.13
X35.25Y-130.75
X36.2Y-53.63
X36.2Y-61.25
X37.5Y-119.25
X38.75Y-106.38
X38.75Y-114.
X40.35Y-61.35
X40.38Y-119.25
X40.38Y-126.87
X42.Y-106.25
X42.Y-113.87
X42.25Y-53.
X42.25Y-58.
X42.92Y-119.25
X42.92Y-126.87
X45.275Y-111.175
X45.35Y-61.35
X45.46Y-119.25
X45.46Y-126.87
X47.175Y-106.825
X47.205Y-102.5
X48.Y-119.25
X48.Y-126.87
X51.5Y-121.5
X51.5Y-126.5
X54.25Y-72.
X54.7Y-68.1
X54.78Y-61.6
X54.78Y-64.8
X54.795Y-106.825
X54.825Y-102.5
X55.275Y-111.175
X55.75Y-123.5
X56.25Y-80.25
X56.25Y-85.25
X56.5Y-75.5
X56.5Y-88.5
X56.5Y-96.12
X57.375Y-100.725
X57.55Y-104.575
X58.Y-107.88
X58.Y-115.5
X58.25Y-123.5
X59.7Y-68.1
X60.075Y-80.93
X60.075Y-88.55
X61.25Y-107.88
X61.25Y-115.5
X62.375Y-100.725
X62.4Y-61.6
X62.4Y-64.8
X62.55Y-104.575
X62.615Y-80.93
X62.615Y-88.55
X64.12Y-75.5
X64.25Y-72.
X65.155Y-80.93
X65.155Y-88.55
X66.5Y-61.5
X66.5Y-66.5
X66.5Y-140.75
X66.5Y-145.75
X67.3Y-69.85
X67.3Y-77.47
X67.695Y-80.93
X67.695Y-88.55
X67.88Y-99.
X70.975Y-88.85
X70.975Y-93.85
X74.5Y-54.75
X74.5Y-57.25
X75.5Y-99.
X77.75Y-140.25
X77.75Y-145.25
X80.3Y-54.23
X80.3Y-61.85
X83.85Y-56.6
X83.85Y-61.6
X87.45Y-63.2
X87.45Y-68.2
X88.8Y-99.7
X88.925Y-103.03
X88.925Y-110.65
X90.75Y-96.75
X91.1Y-128.8
X91.465Y-103.03
X91.465Y-110.65
X93.6Y-128.8
X93.8Y-99.7
X94.005Y-103.03
X94.005Y-110.65
X95.45Y-73.15
X96.545Y-103.03
X96.545Y-110.65
X96.6Y-68.6
X96.68Y-62.
X96.68Y-65.3
X100.75Y-96.75
X100.75Y-103.75
X100.75Y-108.75
X101.6Y-68.6
X102.45Y-113.1
X103.13Y-96.75
X103.25Y-99.75
X103.68Y-108.15
X104.3Y-62.
X104.3Y-65.3
X105.2Y-118.15
X105.45Y-73.15
X106.1Y-104.5
X109.19Y-63.03
X109.19Y-68.03
X110.75Y-96.75
X110.87Y-99.75
X111.1Y-104.5
X111.3Y-108.15
X111.75Y-51.
X111.75Y-56.
X112.45Y-113.1
X112.82Y-118.15
X113.2Y-67.33
X113.2Y-74.95
X113.23Y-82.4
X113.32Y-60.99
X113.52Y-64.12
X113.6Y-89.48
X113.6Y-97.1
X114.13Y-104.45
X114.18Y-108.1
X115.74Y-67.33
X115.74Y-74.95
X115.9Y-78.6
X116.95Y-100.9
X117.05Y-89.4
X117.05Y-97.02
X118.28Y-67.33
X118.28Y-74.95
X120.82Y-67.33
X120.82Y-74.95
X120.85Y-82.4
X120.9Y-78.6
X120.94Y-60.99
X121.14Y-64.12
X121.75Y-104.45
X121.8Y-108.1
X121.95Y-100.9
X122.Y-123.
X122.Y-130.62
T3
X31.Y-67.
X31.Y-70.5
X40.5Y-68.5
X44.Y-68.5
X48.Y-58.
X49.7Y-52.92
X51.4Y-58.
X53.1Y-52.92
X54.8Y-58.
X56.5Y-52.92
X58.2Y-58.
X59.9Y-52.92
X61.6Y-58.
X63.3Y-52.92
X65.Y-58.
X69.75Y-119.67
X69.75Y-122.21
X69.75Y-124.75
X75.6Y-65.35
X75.6Y-68.85
X82.1Y-75.05
X83.Y-119.92
X83.Y-122.46
X83.Y-125.
X85.6Y-75.05
X89.2Y-58.1
X90.9Y-53.02
X92.6Y-58.1
X94.3Y-53.02
X96.Y-58.1
X97.7Y-53.02
X99.4Y-58.1
X101.1Y-53.02
X102.8Y-58.1
X104.5Y-53.02
X106.2Y-58.1
T4
X70.25Y-138.
X70.25Y-145.62
X81.25Y-137.38
X81.25Y-145.
T5
X30.5Y-142.
X38.Y-142.
X38.85Y-91.6
X38.85Y-101.6
X46.05Y-130.25
X49.Y-79.05
X49.Y-91.75
X50.Y-142.
X50.75Y-62.75
X50.75Y-75.45
X57.5Y-142.
X58.75Y-130.25
X73.75Y-132.8
X73.75Y-145.5
X85.Y-132.5
X85.Y-145.2
X91.5Y-63.65
X91.5Y-76.35
X93.Y-142.
X96.95Y-80.65
X96.95Y-90.65
X100.5Y-142.
X104.425Y-130.825
X106.6Y-79.
X106.6Y-91.7
X111.5Y-142.
X117.125Y-130.825
X119.Y-142.
T6
X40.Y-80.25
X40.Y-85.33
X67.9Y-104.875
X67.9Y-109.955
X71.39Y-155.63
X76.47Y-155.63
X81.55Y-155.63
X85.75Y-85.75
X85.75Y-90.83
X118.Y-112.75
X118.Y-117.83
T7
X35.15Y-155.77
X47.85Y-155.77
X53.04Y-155.84
X65.74Y-155.84
X87.03Y-156.07
X99.73Y-156.07
X103.73Y-155.88
X116.43Y-155.88
T0
M30
